<?xml version="1.0" encoding="UTF-8"?>
<svg version="1.1" xmlns="http://www.w3.org/2000/svg" width="1024" height="1024">
<path d="M0 0 C337.92 0 675.84 0 1024 0 C1024 337.92 1024 675.84 1024 1024 C686.08 1024 348.16 1024 0 1024 C0 686.08 0 348.16 0 0 Z " fill="#03B2AD" transform="translate(0,0)"/>
<path d="M0 0 C337.92 0 675.84 0 1024 0 C1024 337.92 1024 675.84 1024 1024 C686.08 1024 348.16 1024 0 1024 C0 686.08 0 348.16 0 0 Z M143 152.4375 C139.74006937 156.66833699 137.13285327 161.08114974 134.6875 165.8125 C134.36201172 166.42730225 134.03652344 167.04210449 133.70117188 167.67553711 C126.61897798 182.04789994 127.57751872 197.41196356 127.6257782 213.01394653 C127.62303599 215.68195832 127.61910629 218.34994458 127.61373454 221.01794994 C127.60446885 226.80737816 127.6062719 232.59671941 127.61546707 238.38614655 C127.62910297 246.99528324 127.62548962 255.60435352 127.61850847 264.21349511 C127.60659647 279.59113535 127.61165611 294.96873452 127.62378674 310.34637249 C127.63432914 323.80247056 127.63886144 337.25855466 127.63749123 350.71465683 C127.6374072 351.60774686 127.63732317 352.50083689 127.63723659 353.42099026 C127.63688433 357.04644749 127.63650032 360.6719047 127.63607101 364.29736192 C127.63210752 398.29432074 127.64481683 432.29125484 127.66559757 466.28820658 C127.68396966 496.48657755 127.68977889 526.68492483 127.68432617 556.88330078 C127.68397974 558.82265866 127.68363364 560.76201654 127.68328788 562.70137443 C127.68311689 563.6601609 127.68294589 564.61894737 127.68276971 565.60678798 C127.68191616 570.43328877 127.68109237 575.25978956 127.68030071 580.08629036 C127.68014363 581.0385056 127.67998655 581.99072084 127.67982471 582.97179108 C127.67583421 608.21401257 127.68131077 633.45623177 127.689812 658.69845188 C127.69071903 661.41466932 127.69162468 664.13088676 127.69252724 666.84710421 C127.69312835 668.64892877 127.69373696 670.45075333 127.69435314 672.25257789 C127.69857329 684.81012451 127.69915329 697.36766665 127.69724765 709.92521376 C127.69480421 726.10709987 127.69888044 742.28896199 127.71445765 758.47084154 C127.72250434 767.02692337 127.72511204 775.58296523 127.7198153 784.13904944 C127.71683604 789.8558788 127.7211474 795.57267286 127.73136387 801.28949378 C127.73698406 804.545458 127.7384057 807.8013249 127.73319729 811.05729224 C127.72808859 814.56959841 127.73528137 818.08167535 127.74552441 821.59396553 C127.74112792 822.59775952 127.73673144 823.60155351 127.73220173 824.63576549 C127.84613044 845.14271052 135.17091483 861.99781136 149 877 C154.32935858 882.21774898 160.28741771 885.91657276 166.875 889.3125 C167.81001343 889.80109497 167.81001343 889.80109497 168.76391602 890.29956055 C178.25436601 894.94984476 188.07558705 896.45103821 198.55028629 896.37473011 C199.65321464 896.37879084 200.75614298 896.38285156 201.8924934 896.38703534 C205.57234536 896.39694695 209.25181274 896.38557247 212.93165588 896.3742218 C215.60292942 896.37696356 218.27417742 896.38089278 220.94544452 896.38626546 C226.7450978 896.3955365 232.54466428 896.39372346 238.34431648 896.38453293 C246.96867376 896.37090386 255.59296468 896.37450815 264.21732682 896.38149153 C279.6219354 896.39340702 295.02650301 896.38834124 310.43110933 896.37621326 C323.9113967 896.36567266 337.39167013 896.36113833 350.87196159 896.36250877 C351.76650671 896.3625928 352.66105183 896.36267683 353.58270438 896.36276341 C357.21403987 896.36311567 360.84537535 896.36349968 364.47671083 896.36392899 C398.53295122 896.36789299 432.58916695 896.35518095 466.64540028 896.33440243 C496.89731409 896.31603176 527.14920426 896.31022067 557.40112305 896.31567383 C559.34376347 896.31602026 561.2864039 896.31636636 563.22904433 896.31671212 C564.18945269 896.31688311 565.14986105 896.31705411 566.13937269 896.31723029 C570.97402404 896.31808384 575.8086754 896.31890762 580.64332676 896.31969929 C581.59714665 896.31985637 582.55096655 896.32001345 583.53369007 896.32017529 C608.81871079 896.32416583 634.10372924 896.31868913 659.38874859 896.310188 C662.10961334 896.30928097 664.8304781 896.30837532 667.55134286 896.30747276 C669.35625946 896.30687165 671.16117607 896.30626303 672.96609267 896.30564686 C685.54562437 896.30142658 698.12515161 896.30084677 710.7046838 896.30275235 C726.91563208 896.30519582 743.1265564 896.30111943 759.33749814 896.28554235 C767.90912732 896.27749557 776.4807166 896.27488802 785.05234816 896.2801847 C790.77957638 896.28316393 796.50676937 896.27885269 802.23398916 896.26863613 C805.49591033 896.26301585 808.75773436 896.2615944 812.01965863 896.26680271 C815.5383723 896.27191128 819.05685715 896.26471879 822.57555485 896.25447559 C823.58123903 896.25887208 824.58692321 896.26326856 825.62308267 896.26779827 C845.23100565 896.15905811 862.27562185 888.97084059 876.58203125 875.57421875 C894.75521538 856.226677 896.45174815 834.1186177 896.38095093 808.87889099 C896.38440967 806.19921726 896.38905313 803.51956912 896.39513266 800.83990246 C896.40593324 795.02497017 896.40566036 789.21012154 896.39799118 783.39518547 C896.38661783 774.74806407 896.39245835 766.1010129 896.4016161 757.45389193 C896.41739567 742.00815073 896.41605124 726.5624468 896.40737936 711.11670206 C896.39982813 697.60037594 896.39786473 684.08406347 896.4014473 670.56773567 C896.40167645 669.67063172 896.40190561 668.77352778 896.40214171 667.84923886 C896.40307574 664.20747203 896.40403095 660.56570521 896.405021 656.92393839 C896.41419455 622.77321431 896.40588293 588.62251395 896.38973031 554.47179354 C896.37549265 524.13914197 896.37676879 493.80652819 896.39111328 463.47387695 C896.40718099 429.38349057 896.41354515 395.29312513 896.40427649 361.20273548 C896.40331436 357.56797318 896.40237584 353.93321087 896.4014473 350.29844856 C896.40121006 349.40349748 896.40097283 348.5085464 896.40072841 347.58647559 C896.39731769 334.07883338 896.40130363 320.57120632 896.40888596 307.06356621 C896.41746506 291.70374482 896.41531632 276.34396649 896.39904372 260.98415046 C896.39023941 252.39048919 896.38965326 243.79692118 896.40098225 235.20326234 C896.40771775 229.46010612 896.40350764 223.71702455 896.39046794 217.97387938 C896.38334471 214.70366443 896.38252153 211.43367073 896.39168589 208.16345542 C896.40081782 204.63410456 896.39144122 201.10525902 896.37752342 197.57593441 C896.38454692 196.5699544 896.39157042 195.56397439 896.39880675 194.52751014 C896.31887511 184.37529942 894.01664011 174.87720925 889.3125 165.875 C888.96292236 165.19687256 888.61334473 164.51874512 888.25317383 163.82006836 C881.28670845 150.70387407 871.27694263 141.41911652 858.125 134.625 C857.51398437 134.30321777 856.90296875 133.98143555 856.2734375 133.64990234 C841.85366631 126.6076019 826.42393274 127.57045051 810.79191589 127.60559082 C808.10271803 127.60069899 805.41354598 127.59462796 802.72435647 127.58713293 C796.88851371 127.57326274 791.05274847 127.57047471 785.21689224 127.57509232 C776.53844939 127.58194119 767.86008467 127.5716455 759.18165268 127.55813476 C742.77839539 127.53325336 726.37517071 127.52870435 709.97189756 127.53060073 C697.30357513 127.53197488 684.63526397 127.52815085 671.96694374 127.52067566 C670.14557547 127.51962531 668.32420719 127.5185777 666.50283891 127.5175328 C665.59869121 127.51701345 664.6945435 127.51649411 663.76299738 127.51595903 C662.85717734 127.51543888 661.9513573 127.51491874 661.01808816 127.51438284 C660.11072893 127.51385885 659.2033697 127.51333486 658.26851473 127.51279498 C632.75586164 127.49821611 607.2432127 127.48992727 581.73055553 127.49454498 C580.28851075 127.49480292 580.28851075 127.49480292 578.81733376 127.49506606 C573.94499177 127.49595492 569.07264979 127.49689973 564.20030781 127.49786407 C563.23268072 127.4980551 562.26505363 127.49824613 561.26810452 127.49844296 C559.31132878 127.49883005 557.35455304 127.49922038 555.3977773 127.49961393 C524.95094483 127.50558383 494.50418838 127.4901443 464.05737305 127.45800781 C429.83363549 127.42191525 395.60994612 127.40260023 361.38618833 127.40754652 C357.73562674 127.40801648 354.08506515 127.40842674 350.43450356 127.40879822 C349.53567271 127.4089006 348.63684187 127.40900299 347.71077374 127.40910848 C334.15451849 127.41030226 320.5983154 127.39834983 307.0420742 127.37965393 C291.62123022 127.3583965 276.20049549 127.35458802 260.7796466 127.37395352 C252.15565634 127.38426374 243.53193278 127.38085058 234.90796675 127.35742267 C229.13949064 127.34314464 223.37121098 127.34721195 217.60274799 127.36586843 C214.32123911 127.37597561 211.04034723 127.37567607 207.75885262 127.35854775 C182.10611767 127.23380147 160.44823796 132.26086961 143 152.4375 Z " fill="#1A1B1B" transform="translate(0,0)"/>
<path d="M0 0 C337.92 0 675.84 0 1024 0 C1024 42.24 1024 84.48 1024 128 C965.92 128.33 907.84 128.66 848 129 C848.66 129.66 849.32 130.32 850 131 C843.30531899 130.06274466 843.30531899 130.06274466 840.43756998 129.47340715 C835.65771174 128.81514591 830.94340947 128.85735752 826.12388039 128.86298561 C825.02093122 128.86033378 823.91798206 128.85768196 822.78161019 128.85494977 C819.06563076 128.8472571 815.34968437 128.84669761 811.63369751 128.84609985 C808.95055083 128.84208521 806.26740727 128.83768356 803.58426225 128.8328203 C796.97040419 128.82175576 790.35655144 128.81609881 783.74268576 128.81211142 C775.82108004 128.80709853 767.89948458 128.79637042 759.97788493 128.78562968 C740.83013442 128.7600095 721.68237993 128.7449657 702.53461721 128.73211922 C696.19179928 128.72786358 689.84898164 128.72329783 683.50616407 128.7185359 C649.77260375 128.69327471 616.03904294 128.67122917 582.30547523 128.65880775 C574.49092227 128.65588649 566.67636933 128.65291895 558.86181641 128.64990234 C557.89096843 128.64953143 556.92012046 128.64916053 555.91985285 128.64877838 C524.44858046 128.63662513 492.97736403 128.60568419 461.50611791 128.56398082 C429.14546189 128.52117716 396.78483543 128.49456472 364.42415033 128.48933304 C359.85179126 128.48859262 355.27943223 128.48768194 350.70707321 128.48667526 C349.80721687 128.48648465 348.90736053 128.48629403 347.98023581 128.48609764 C333.50991097 128.48258673 319.03965631 128.46230119 304.56935722 128.43587863 C290.01829755 128.40970968 275.46731881 128.40201686 260.91623898 128.41297992 C252.27672351 128.418948 243.63748295 128.41109109 234.99800919 128.38314908 C229.21895103 128.36584521 223.44007948 128.36688974 217.66101715 128.38251677 C214.37332834 128.3908948 211.08626399 128.38883262 207.79860409 128.36990531 C186.20208062 128.25320601 166.19582628 130.9899494 149.5859375 146.29296875 C146.80218998 149.28926842 144.2868552 152.48851454 141.796875 155.73046875 C140.28874448 157.63530317 138.76031301 159.33204909 137 161 C137.59155004 154.49294951 142.18627916 149.14975934 147 145 C147.66 145 148.32 145 149 145 C149 144.34 149 143.68 149 143 C151.475 142.01 151.475 142.01 154 141 C154 140.34 154 139.68 154 139 C156.64738916 137.5393715 157.89448334 137 161 137 C161 136.34 161 135.68 161 135 C162.06541016 134.49339844 162.06541016 134.49339844 163.15234375 133.9765625 C164.07144531 133.53054687 164.99054688 133.08453125 165.9375 132.625 C166.85402344 132.18414062 167.77054688 131.74328125 168.71484375 131.2890625 C171.12903802 130.20800838 171.12903802 130.20800838 172 128 C115.24 128 58.48 128 0 128 C0 85.76 0 43.52 0 0 Z " fill="#27272B" transform="translate(0,0)"/>
<path d="M0 0 C2.29194279 0.018361 4.58347907 0.02050766 6.87548828 0.02026367 C20.77221194 0.05114094 34.41106706 0.72625326 48.09814453 3.33081055 C49.25419189 3.550354 50.41023926 3.76989746 51.60131836 3.99609375 C94.49294743 12.4642833 132.59968136 31.55741952 164.78955078 61.0690918 C167.69414142 63.68657298 170.70989834 66.1572884 173.76220703 68.6003418 C175.16064453 70.20581055 175.16064453 70.20581055 175.16064453 74.20581055 C174.07836914 75.81811523 174.07836914 75.81811523 172.56298828 77.37768555 C172.01263916 77.95510498 171.46229004 78.53252441 170.89526367 79.12744141 C170.30221436 79.73080322 169.70916504 80.33416504 169.09814453 80.95581055 C167.88640666 82.22197215 166.67546087 83.48889229 165.46533203 84.7565918 C164.88493164 85.35938965 164.30453125 85.9621875 163.70654297 86.58325195 C161.98615159 88.38895648 160.34063355 90.24506566 158.72314453 92.14331055 C155.31259429 96.10091647 151.73373117 99.89566024 148.16064453 103.70581055 C144.02193982 108.11939097 139.93046318 112.55089543 135.98095703 117.13549805 C132.49797362 121.09683111 128.88652515 124.94268188 125.30126953 128.8112793 C123.22051544 131.0568136 121.14753556 133.30907586 119.08251953 135.5690918 C118.59106445 136.10695313 118.09960938 136.64481445 117.59326172 137.19897461 C116.24015907 138.68120771 114.88787613 140.16418899 113.53564453 141.6472168 C111.45703719 143.88650596 109.3383623 146.06337987 107.16064453 148.20581055 C106.19578125 147.18874023 106.19578125 147.18874023 105.21142578 146.15112305 C83.86593898 124.16618514 58.22568224 111.01140718 28.16064453 105.20581055 C27.23904541 105.02695312 26.31744629 104.8480957 25.36791992 104.66381836 C21.68128661 104.13735691 18.04885972 104.00777016 14.33251953 103.9675293 C13.59017059 103.95778076 12.84782166 103.94803223 12.08297729 103.93798828 C-10.17976401 103.61243547 -10.17976401 103.61243547 -31.83935547 108.20581055 C-33.03044922 108.56803711 -34.22154297 108.93026367 -35.44873047 109.3034668 C-54.24525831 115.46455092 -70.58004572 125.53951557 -84.83935547 139.20581055 C-85.68498047 140.01018555 -86.53060547 140.81456055 -87.40185547 141.64331055 C-88.20623047 142.48893555 -89.01060547 143.33456055 -89.83935547 144.20581055 C-90.48130859 144.86452148 -91.12326172 145.52323242 -91.78466797 146.2019043 C-123.26276729 179.59939991 -130.96017884 225.01950437 -129.83935547 269.20581055 C-129.58193472 274.94754897 -128.87774555 280.55137329 -127.83935547 286.20581055 C-127.68337891 287.07189941 -127.52740234 287.93798828 -127.36669922 288.83032227 C-122.39593666 315.60340174 -112.79943937 341.34515845 -94.83935547 362.20581055 C-94.10072266 363.08237305 -93.36208984 363.95893555 -92.60107422 364.86206055 C-71.92097188 388.66438082 -43.32163952 404.56281331 -11.83935547 408.20581055 C-5.95032859 408.61387185 -0.05268315 408.64428748 5.84814453 408.64331055 C6.65890442 408.64471039 7.46966431 408.64611023 8.30499268 408.64755249 C28.17470447 408.6194693 46.53103125 405.08102497 65.16064453 398.20581055 C69.61564453 396.72081055 69.61564453 396.72081055 74.16064453 395.20581055 C74.16064453 366.16581055 74.16064453 337.12581055 74.16064453 307.20581055 C40.50064453 307.20581055 6.84064453 307.20581055 -27.83935547 307.20581055 C-27.83935547 273.54581055 -27.83935547 239.88581055 -27.83935547 205.20581055 C39.48064453 205.20581055 106.80064453 205.20581055 176.16064453 205.20581055 C176.68458398 266.45298821 176.68458398 266.45298821 176.79541016 292.11401367 C176.82086099 297.97738109 176.84712683 303.84074398 176.87475586 309.70410156 C176.87818459 310.43893833 176.88161333 311.1737751 176.88514596 311.93087965 C176.94162787 323.78144343 177.04408225 335.63118393 177.16363088 347.48126016 C177.2853705 359.65036544 177.35744365 371.81904093 177.38379496 383.98873013 C177.40159944 391.49357023 177.45773922 398.99608425 177.5635586 406.50020786 C177.64066061 412.26278367 177.64852095 418.02388245 177.63104439 423.78687096 C177.63461283 426.14479232 177.66036945 428.50280395 177.7103157 430.86019897 C178.08726841 449.57415806 178.08726841 449.57415806 173.35365868 454.98192406 C170.22769516 457.90598958 166.84554625 460.04406775 163.16064453 462.20581055 C161.38514251 463.46726485 159.61631219 464.73827149 157.85986328 466.02612305 C156.19625727 467.13817918 154.52561091 468.23977418 152.84814453 469.33081055 C151.94644531 469.9220874 151.04474609 470.51336426 150.11572266 471.12255859 C106.57391049 499.40853562 55.47265792 512.41839158 3.78564453 512.45581055 C2.94371552 512.45648529 2.1017865 512.45716003 1.23434448 512.45785522 C-12.01789336 512.44103028 -24.80716079 511.76972601 -37.83935547 509.20581055 C-38.76135742 509.0342041 -39.68335938 508.86259766 -40.63330078 508.68579102 C-80.51279224 501.175668 -117.35344813 484.04020252 -147.83935547 457.20581055 C-148.51740234 456.63862305 -149.19544922 456.07143555 -149.89404297 455.48706055 C-160.52396896 446.54514856 -170.60707986 436.3936588 -178.83935547 425.20581055 C-179.31050781 424.58399902 -179.78166016 423.9621875 -180.26708984 423.3215332 C-188.50803094 412.44257868 -195.54796726 401.30950533 -201.83935547 389.20581055 C-202.19336426 388.5387207 -202.54737305 387.87163086 -202.91210938 387.18432617 C-216.76361421 361.05431705 -225.04086724 333.31213354 -229.83935547 304.20581055 C-230.0045166 303.27833008 -230.16967773 302.35084961 -230.33984375 301.39526367 C-235.63899557 271.03611056 -235.47330547 236.49536642 -229.83935547 206.20581055 C-229.65131348 205.13733887 -229.46327148 204.06886719 -229.26953125 202.96801758 C-218.27865609 141.82307722 -186.58858464 80.63103995 -134.83935547 44.20581055 C-134.15019043 43.72063965 -133.46102539 43.23546875 -132.75097656 42.7355957 C-93.52532168 15.40489774 -48.10185615 -0.39647216 0 0 Z " fill="#062259" transform="translate(642.83935546875,255.794189453125)"/>
<path d="M0 0 C1.21533165 -0.0049926 1.21533165 -0.0049926 2.45521545 -0.01008606 C4.16195109 -0.0151147 5.86869642 -0.01749565 7.57543945 -0.01733398 C10.12273415 -0.01949944 12.66957967 -0.03764075 15.21679688 -0.05664062 C30.50426799 -0.11035757 45.33567052 1.3853388 60.34765625 4.29296875 C61.31574219 4.47472656 62.28382813 4.65648437 63.28125 4.84375 C65.59624563 5.27924423 67.90994434 5.72053617 70.22265625 6.16796875 C70.22265625 6.82796875 70.22265625 7.48796875 70.22265625 8.16796875 C68.46948242 9.53735352 68.46948242 9.53735352 66.015625 11.109375 C65.12415771 11.68840576 64.23269043 12.26743652 63.31420898 12.86401367 C62.35587158 13.47994385 61.39753418 14.09587402 60.41015625 14.73046875 C52.61274483 19.83884871 45.1879787 24.95445888 38.22265625 31.16796875 C36.78792969 32.44027344 36.78792969 32.44027344 35.32421875 33.73828125 C15.04856877 51.9287538 -7.02116551 74.40558302 -17.53393555 100.01074219 C-18.89138414 103.05239521 -19.97477488 104.74568143 -22.97436523 106.32397461 C-25.7789922 107.35007036 -28.59599655 108.21349519 -31.46484375 109.04296875 C-52.02864016 115.6049572 -69.18404032 126.26770103 -84.77734375 141.16796875 C-85.86208984 142.14056641 -85.86208984 142.14056641 -86.96875 143.1328125 C-115.14469112 169.39339447 -128.65767098 211.72637648 -130.06640625 249.32421875 C-130.70038556 278.87457066 -124.93774944 306.65303135 -111.77734375 333.16796875 C-111.21273437 334.32425781 -110.648125 335.48054688 -110.06640625 336.671875 C-92.65817506 370.63018513 -62.63014746 393.52600353 -26.77734375 405.16796875 C-25.72933594 405.37550781 -24.68132812 405.58304688 -23.6015625 405.796875 C-19.21933495 407.92434647 -17.8425939 411.51775158 -15.65234375 415.73046875 C-7.30943795 430.89899616 2.703112 444.28259995 14.22265625 457.16796875 C15.03863281 458.09480469 15.85460937 459.02164062 16.6953125 459.9765625 C23.77666986 467.95675424 31.05807877 475.22081383 39.39453125 481.89453125 C41.1965057 483.34307977 42.98017497 484.81491797 44.73828125 486.31640625 C53.04392467 493.37365542 62.09081856 499.24351367 71.22265625 505.16796875 C68.22257479 507.16802305 66.71428876 507.61253873 63.25 508.203125 C62.26708984 508.37263672 61.28417969 508.54214844 60.27148438 508.71679688 C59.24474609 508.88630859 58.21800781 509.05582031 57.16015625 509.23046875 C56.16048828 509.40384766 55.16082031 509.57722656 54.13085938 509.75585938 C-8.35053508 520.35211925 -74.20835666 505.03930717 -125.90332031 468.67236328 C-144.86818145 455.12540413 -162.4790833 439.64055356 -176.77734375 421.16796875 C-177.7818045 419.91476502 -178.78706989 418.66220596 -179.79296875 417.41015625 C-209.76005726 379.69497447 -225.94473537 334.60454689 -231.77734375 287.16796875 C-231.86437057 286.49544571 -231.9513974 285.82292267 -232.0410614 285.13002014 C-232.71712349 279.59892892 -232.93785778 274.15528976 -232.9453125 268.5859375 C-232.9486409 267.69167557 -232.9519693 266.79741364 -232.95539856 265.87605286 C-232.96043293 263.98939523 -232.96280797 262.10272879 -232.96264648 260.21606445 C-232.96480874 257.40104482 -232.98293487 254.58643367 -233.00195312 251.77148438 C-233.05496785 235.13507942 -231.84250553 218.75654585 -228.58984375 202.41796875 C-228.37553711 201.33290039 -228.16123047 200.24783203 -227.94042969 199.12988281 C-218.15222137 151.37948607 -195.60058761 108.2181743 -161.77734375 73.16796875 C-161.21080078 72.57951172 -160.64425781 71.99105469 -160.06054688 71.38476562 C-152.69955195 63.77975982 -145.22776217 56.57272188 -136.77734375 50.16796875 C-136.13845215 49.67973633 -135.49956055 49.19150391 -134.84130859 48.68847656 C-113.19559357 32.2455298 -88.75681108 19.29619813 -62.77734375 11.16796875 C-61.98956543 10.91563477 -61.20178711 10.66330078 -60.39013672 10.40332031 C-40.99596724 4.2540422 -20.41517821 0.03028491 0 0 Z " fill="#062259" transform="translate(437.77734375,255.83203125)"/>
<path d="M0 0 C1.10961718 -0.00436032 2.21923435 -0.00872064 3.36247629 -0.0132131 C7.07111778 -0.02413898 10.77938514 -0.01375938 14.48802376 -0.00342751 C17.17763307 -0.00688512 19.86721682 -0.01152759 22.55681908 -0.01760924 C28.39968349 -0.02842232 34.24246467 -0.02812918 40.08533287 -0.02046776 C48.77407454 -0.00910576 57.46274619 -0.01492911 66.15148741 -0.02409268 C81.67141301 -0.03988171 97.19130154 -0.03852389 112.71123066 -0.02985594 C126.29428396 -0.02230708 139.87732368 -0.02034019 153.46037865 -0.02392387 C154.81226166 -0.02426761 154.81226166 -0.02426761 156.19145544 -0.02461828 C159.85003451 -0.02555231 163.50861357 -0.02650752 167.16719263 -0.02749758 C201.4845719 -0.03667361 235.80192758 -0.02835599 270.11930321 -0.01220688 C300.59932923 0.00202739 331.07931765 0.00075797 361.55934334 -0.01358986 C395.81123402 -0.02965935 430.06310386 -0.03602041 464.31499779 -0.02675307 C467.96750267 -0.02579093 471.62000755 -0.02485241 475.27251244 -0.02392387 C476.17183855 -0.02368664 477.07116466 -0.02344941 477.99774307 -0.02320499 C491.56991669 -0.01979464 505.14207522 -0.02377959 518.71424675 -0.03136253 C534.15021137 -0.03994385 549.58613315 -0.03778837 565.02209245 -0.0215203 C573.65774697 -0.01271898 582.29330869 -0.01212548 590.92896078 -0.02345882 C596.70145573 -0.0301981 602.47387645 -0.02597743 608.24636043 -0.01294452 C611.53254702 -0.00582639 614.81851377 -0.00499046 618.10470067 -0.01416247 C648.13291186 -0.09153979 648.13291186 -0.09153979 661.75026131 7.06502342 C662.75476326 7.57742577 662.75476326 7.57742577 663.77955818 8.10017967 C669.40371981 11.08376203 674.09007798 14.77133195 678.50026131 19.37752342 C677.84026131 19.70752342 677.18026131 20.03752342 676.50026131 20.37752342 C675.84026131 20.04752342 675.18026131 19.71752342 674.50026131 19.37752342 C674.50026131 18.71752342 674.50026131 18.05752342 674.50026131 17.37752342 C673.51026131 17.37752342 672.52026131 17.37752342 671.50026131 17.37752342 C669.81209198 15.73264049 668.14672816 14.064148 666.50026131 12.37752342 C665.19030919 11.66601259 663.85318965 11.00346841 662.50026131 10.37752342 C661.73971443 9.97533592 660.97916756 9.57314842 660.19557381 9.15877342 C644.88548208 1.52699517 627.57439015 3.09723096 610.9124012 3.13701439 C608.19444725 3.13725654 605.47649823 3.13447327 602.75854576 3.13183606 C596.86338688 3.12770681 590.96826854 3.13094479 585.0731144 3.13911247 C576.30735566 3.15122345 567.54162227 3.15178029 558.77585669 3.1500285 C544.0277351 3.1474055 529.27963148 3.15406523 514.53151512 3.16606331 C499.93453698 3.17790792 485.33756633 3.18559734 470.74058342 3.18776894 C469.37786172 3.18797516 469.37786172 3.18797516 467.98761029 3.18818554 C463.37366626 3.18886223 458.75972221 3.18946499 454.14577816 3.19003929 C421.48740417 3.1942372 388.82903995 3.20770378 356.17067146 3.22664452 C324.44866678 3.24502093 292.72666478 3.25918446 261.00465584 3.26766014 C260.02639653 3.26792319 259.04813721 3.26818625 258.04023368 3.26845727 C248.21591803 3.27109437 238.39160235 3.27364599 228.56728666 3.27613499 C208.55502571 3.28120706 188.54276493 3.28684956 168.53050423 3.29283714 C167.61042555 3.29311172 166.69034688 3.2933863 165.74238703 3.2936692 C104.32834106 3.31206243 42.91430051 3.34375188 -18.49973869 3.37752342 C-18.49973869 4.03752342 -18.49973869 4.69752342 -18.49973869 5.37752342 C-20.47973869 5.37752342 -22.45973869 5.37752342 -24.49973869 5.37752342 C-18.60660533 -0.51560994 -7.80706527 -0.05410679 0 0 Z " fill="#12AEAA" transform="translate(196.4997386932373,127.62247657775879)"/>
<path d="M0 0 C4.21878192 -0.19622241 7.17010894 0.19769832 11 2 C11 2.66 11 3.32 11 4 C72.86672907 4.01714139 134.73345841 4.03304062 196.60018921 4.04234314 C197.51599555 4.0424812 198.43180189 4.04261925 199.37535994 4.04276149 C219.27882105 4.04575448 239.18228218 4.04852465 259.08574335 4.05106533 C268.84655026 4.05231265 278.60735716 4.05360921 288.36816406 4.05493164 C289.82513201 4.05512778 289.82513201 4.05512778 291.31153366 4.05532788 C322.78835564 4.05958839 354.26517583 4.06709909 385.74199672 4.07629722 C418.09146153 4.08573318 450.44092534 4.09188623 482.79039149 4.09391499 C487.36067171 4.09420314 491.93095193 4.09452878 496.50123215 4.09487724 C497.85046271 4.09497838 497.85046271 4.09497838 499.22695045 4.09508156 C513.69982917 4.09626277 528.17270481 4.10089948 542.64558227 4.10683203 C557.19956041 4.11272396 571.75353551 4.1149668 586.3075148 4.11350138 C594.95176251 4.11274144 603.59599905 4.11476284 612.24024474 4.12079754 C618.02012606 4.12455647 623.8000001 4.1246573 629.57988193 4.12183181 C632.86961164 4.12032693 636.15931615 4.12092511 639.44904442 4.12488318 C662.17129307 4.9145883 662.17129307 4.9145883 684 0 C686.2109375 0.4140625 686.2109375 0.4140625 688 1 C685.83735394 1.82314197 683.66964902 2.63299779 681.5 3.4375 C679.69015625 4.11619141 679.69015625 4.11619141 677.84375 4.80859375 C670.40841928 7.29927521 662.70628991 7.14557959 654.95307827 7.13422108 C653.85596369 7.13657331 652.75884911 7.13892554 651.62848863 7.14134905 C647.94440867 7.14801724 644.26036416 7.14758148 640.57627869 7.14717102 C637.91131729 7.15047098 635.24635896 7.15415927 632.58139902 7.1583125 C626.02031611 7.16762161 619.45923993 7.17155769 612.89815124 7.17383147 C605.03815007 7.1767979 597.1781578 7.18549782 589.31816132 7.19424575 C570.32246909 7.21507196 551.32677533 7.22555665 532.33107436 7.23437535 C523.34298952 7.23858403 514.35490535 7.24380569 505.36682108 7.24905988 C474.59293474 7.26694754 443.8190482 7.28194352 413.04515743 7.28938007 C411.11385432 7.28985483 409.18255121 7.29033072 407.2512481 7.29080774 C405.81464089 7.2911623 405.81464089 7.2911623 404.34901132 7.29152403 C399.49675298 7.29272521 394.64449466 7.29394066 389.79223633 7.29516602 C388.34782821 7.29552624 388.34782821 7.29552624 386.87424013 7.29589374 C355.65186232 7.30378708 324.4295225 7.32722093 293.20716128 7.35972196 C260.18820173 7.39403036 227.1692644 7.41373208 194.15028673 7.41702431 C190.52466078 7.41744185 186.89903483 7.41792141 183.27340889 7.41844749 C182.38069388 7.41857069 181.48797886 7.41869388 180.56821188 7.4188208 C166.21125111 7.4211514 151.85433453 7.43680331 137.4973895 7.45728934 C123.06309925 7.47755881 108.628862 7.4830193 94.19456016 7.47351871 C85.6237377 7.46830836 77.05309184 7.47415919 68.48229484 7.49605338 C62.75036816 7.50958676 57.01856271 7.50846215 51.28663476 7.49565142 C48.02514624 7.48877161 44.76406037 7.49026161 41.50258922 7.50521151 C9.0626448 7.64467038 9.0626448 7.64467038 0 0 Z " fill="#19A19D" transform="translate(168,889)"/>
<path d="M0 0 C1.37432457 3.81756824 0.67975039 7.07255329 0 11 C-0.66 11 -1.32 11 -2 11 C-2.01714057 72.78550653 -2.03303991 134.57101334 -2.04234314 196.35652161 C-2.0424812 197.27105627 -2.04261925 198.18559093 -2.04276149 199.12783876 C-2.04575445 219.00343461 -2.04852462 238.87903049 -2.05106533 258.7546264 C-2.05231266 268.50170081 -2.05360921 278.24877521 -2.05493164 287.99584961 C-2.0550624 288.96579749 -2.05519316 289.93574538 -2.05532788 290.93508562 C-2.05958876 322.37039557 -2.06709972 353.80570373 -2.07629722 385.24101259 C-2.08573216 417.54653174 -2.09188599 449.85204989 -2.09391499 482.15757038 C-2.09420314 486.72114406 -2.09452878 491.28471773 -2.09487724 495.8482914 C-2.09494467 496.74646271 -2.09501209 497.64463402 -2.09508156 498.57002265 C-2.09626299 513.0245022 -2.10090029 527.47897867 -2.10683203 541.93345696 C-2.1127225 556.46725407 -2.11496717 571.00104813 -2.11350138 585.53484639 C-2.11274117 594.16819544 -2.1147653 602.80153333 -2.12079754 611.43488036 C-2.1245543 617.20622057 -2.12465882 622.97755348 -2.12183181 628.74889419 C-2.1203258 632.03456583 -2.12092857 635.32021222 -2.12488318 638.60588243 C-2.12890472 642.15363576 -2.12672762 645.7013348 -2.12304783 649.24908733 C-2.12567484 650.25776069 -2.12830186 651.26643405 -2.13100848 652.30567327 C-2.10853919 661.91347283 -1.54489417 671.50993583 0 681 C0.66 681 1.32 681 2 681 C2 682.98 2 684.96 2 687 C-0.54155448 684.45844552 -1.01555204 682.3064416 -2.0625 678.875 C-2.40410156 677.77929688 -2.74570313 676.68359375 -3.09765625 675.5546875 C-5.00814436 668.02852221 -5.14492932 660.68246916 -5.13142776 652.96310902 C-5.13450672 651.31907092 -5.13450672 651.31907092 -5.13764787 649.64181992 C-5.14331177 645.96146341 -5.14186136 642.2811444 -5.14044189 638.6007843 C-5.14302587 635.93852241 -5.1460004 633.27626353 -5.1494453 630.61400288 C-5.15701303 624.05966142 -5.15921773 617.50532811 -5.15977435 610.95098273 C-5.16068919 603.09914869 -5.16736024 595.24732216 -5.17412117 587.39549135 C-5.19017026 568.42039497 -5.19608297 549.44529941 -5.20086992 530.47019746 C-5.20320671 521.49273878 -5.20680942 512.51528074 -5.2105653 503.53782256 C-5.22339911 472.8027773 -5.23411902 442.0677324 -5.2375679 411.33268452 C-5.23778953 409.40387078 -5.23801132 407.47505705 -5.23823325 405.54624332 C-5.23845389 403.61279824 -5.23867438 401.67935316 -5.2388947 399.74590808 C-5.23933725 395.8671451 -5.23978437 391.98838212 -5.24023438 388.10961914 C-5.24034377 387.14791372 -5.24045316 386.1862083 -5.24056586 385.19536029 C-5.24419702 354.00751221 -5.26012015 322.81968737 -5.28342474 291.63184819 C-5.30802311 258.65225644 -5.32174072 225.67267798 -5.32293582 192.69307679 C-5.32310727 189.07254199 -5.3233227 185.45200719 -5.32357025 181.8314724 C-5.32362602 180.94000569 -5.32368179 180.04853898 -5.32373925 179.13005813 C-5.3248896 164.78758904 -5.33591013 150.44514381 -5.35045731 136.10268277 C-5.36482657 121.68635579 -5.36805683 107.27005938 -5.36001733 92.8537272 C-5.35556332 84.29140145 -5.35941257 75.72917444 -5.37525584 67.16686167 C-5.38501629 61.44314812 -5.38381743 55.71950362 -5.37381961 49.99579068 C-5.36843529 46.73740473 -5.36936046 43.47924544 -5.38032833 40.22086803 C-5.46546855 13.21563432 -5.46546855 13.21563432 0 0 Z " fill="#1BA19D" transform="translate(133,169)"/>
<path d="M0 0 C0.94266 -0.00145344 1.88532 -0.00290688 2.85654545 -0.00440437 C6.02782145 -0.0080651 9.19904941 -0.00457736 12.37032509 -0.0011425 C14.6629516 -0.00229438 16.95557793 -0.00388236 19.24820387 -0.00586975 C25.56034087 -0.01005591 31.87246281 -0.00797534 38.18459988 -0.00488353 C44.29263105 -0.00237018 50.40066069 -0.00551669 56.50869144 -0.00803089 C69.7927587 -0.01330473 83.07682116 -0.01283579 96.36088888 -0.00995198 C108.02748313 -0.00743219 119.69407562 -0.00678159 131.36067009 -0.00797462 C132.1358673 -0.00805101 132.9110645 -0.00812739 133.70975253 -0.00820609 C136.8575946 -0.00851749 140.00543667 -0.0088359 143.15327873 -0.00916586 C172.73172533 -0.01222905 202.31016889 -0.00944838 231.88861501 -0.00406896 C258.01147713 0.00064612 284.13433436 0.00027872 310.25719643 -0.00452995 C339.68338077 -0.00992871 369.1095624 -0.01198099 398.53574717 -0.00891769 C401.69818282 -0.00859708 404.86061847 -0.00828423 408.02305412 -0.00797462 C408.80156699 -0.00789555 409.58007985 -0.00781647 410.38218401 -0.007735 C421.2187379 -0.00668601 432.05529 -0.00758207 442.89184365 -0.00996149 C557.15210739 -0.03464458 557.15210739 -0.03464458 598.99775341 0.54020968 C600.51114179 0.56099812 602.02453567 0.58139042 603.53793499 0.60136709 C608.25104518 0.66361337 612.9639121 0.7353869 617.67678261 0.81410408 C619.35293565 0.83854745 619.35293565 0.83854745 621.06295037 0.86348462 C636.71363689 1.16170749 636.71363689 1.16170749 643.60778236 5.12584114 C640.52033064 6.11130908 638.65796321 6.08299756 635.55754811 5.2046982 C630.14496128 3.89383746 624.95970791 3.84413423 619.41153049 3.86412811 C618.3104565 3.86013205 617.2093825 3.85613599 616.07494262 3.85201883 C612.38352728 3.84104557 608.69226186 3.84424578 605.00083351 3.84736824 C602.32843923 3.84236533 599.65605724 3.83657331 596.98366791 3.82981551 C591.1725793 3.81670844 585.36151974 3.81095863 579.55041695 3.81005478 C570.90956105 3.80867731 562.26874827 3.79588514 553.62790684 3.78076704 C539.09182432 3.75565722 524.55574545 3.73978534 510.01964569 3.7291851 C495.62785941 3.7186599 481.23608696 3.70402465 466.84431076 3.68390465 C465.9493494 3.68265578 465.05438803 3.68140691 464.13230663 3.6801202 C459.58721816 3.67375642 455.0421298 3.66731924 450.49704147 3.66085382 C418.30731844 3.61519567 386.11759091 3.57874607 353.92785072 3.54771614 C322.65668518 3.5175506 291.38552876 3.48321133 260.11437416 3.44322395 C258.66840959 3.44137745 258.66840959 3.44137745 257.1932336 3.43949364 C247.51255373 3.42712675 237.83187397 3.41467503 228.15119429 3.40216116 C208.43067466 3.37667108 188.71015434 3.35174716 168.98963356 3.3271656 C168.08292333 3.32603469 167.17621309 3.32490379 166.24202679 3.32373861 C105.69728927 3.2482881 45.15253674 3.18603509 -15.39221764 3.12584114 C-15.39221764 2.46584114 -15.39221764 1.80584114 -15.39221764 1.12584114 C-10.21531712 0.06999865 -5.25590181 -0.01408983 0 0 Z " fill="#143A3C" transform="translate(206.3922176361084,124.87415885925293)"/>
<path d="M0 0 C0.33 0 0.66 0 1 0 C1.74091191 3.31502026 2.1252738 6.37759208 2.12649983 9.77204347 C2.13063945 11.18087077 2.13063945 11.18087077 2.13486269 12.61815923 C2.13280737 13.64367173 2.13075205 14.66918423 2.12863445 15.72577286 C2.13038749 16.82460023 2.13214053 17.92342761 2.13394669 19.05555278 C2.1386246 22.76346768 2.13613657 26.47134368 2.13371277 30.17926025 C2.13557984 32.85415805 2.1378401 35.52905291 2.14057809 38.20394969 C2.14573602 44.03315037 2.14714861 49.86234275 2.14612198 55.69154549 C2.14459904 64.35986802 2.1487544 73.02818133 2.1539966 81.69650207 C2.16367646 98.07818888 2.16648109 114.45987256 2.16705366 130.84156188 C2.1675129 143.49106245 2.16956967 156.14056178 2.17275429 168.79006195 C2.17365181 172.42897375 2.17454162 176.06788556 2.17542917 179.70679736 C2.17565021 180.61140008 2.17587126 181.5160028 2.17609901 182.44801772 C2.18225478 207.89921979 2.18619941 233.35042144 2.18575573 258.8016243 C2.18574015 259.76154356 2.18572457 260.72146282 2.18570852 261.71047055 C2.18562541 266.57592523 2.18552637 271.44137992 2.18542381 276.30683461 C2.1853939 277.75632266 2.1853939 277.75632266 2.18536337 279.2350933 C2.18532294 281.18923964 2.18528114 283.14338599 2.18523798 285.09753233 C2.18462519 315.50268909 2.19213186 345.90783471 2.20581055 376.31298828 C2.22116626 410.46004918 2.22977707 444.60710275 2.22884732 478.75416732 C2.22877269 482.39433654 2.22872399 486.03450576 2.22869301 489.67467499 C2.22868135 490.57100034 2.2286697 491.46732569 2.22865769 492.39081242 C2.2286269 506.82442372 2.23501688 521.25802535 2.24362527 535.69163378 C2.25209616 550.19450957 2.25309614 564.6973712 2.24651595 579.20024809 C2.24281649 587.81892279 2.24466446 596.43755449 2.25445829 605.05622465 C2.26044739 610.81250156 2.25917476 616.56874726 2.25198779 622.32502273 C2.24809722 625.60530404 2.248458 628.88548525 2.25544515 632.16576388 C2.26247786 635.70087373 2.25723287 639.23576043 2.24888897 642.77086258 C2.25385715 643.78701041 2.25882533 644.80315824 2.26394406 645.85009843 C2.23383991 651.865035 1.51036386 657.17272124 0 663 C-0.33 663 -0.66 663 -1 663 C-1.01714929 602.30900642 -1.03304742 541.61801256 -1.04234314 480.92701721 C-1.0424812 480.0279605 -1.04261925 479.12890378 -1.04276149 478.20260293 C-1.0457548 458.66101851 -1.04852492 439.11943407 -1.05106533 419.57784959 C-1.0523126 409.99387563 -1.05360917 400.40990168 -1.05493164 390.82592773 C-1.0550624 389.87223587 -1.05519316 388.918544 -1.05532788 387.93595238 C-1.05958492 357.05555831 -1.06709301 326.17516606 -1.07629722 295.2947731 C-1.08574297 263.54616236 -1.09188849 231.79755264 -1.09391499 200.04894052 C-1.09420312 195.55884733 -1.09452876 191.06875415 -1.09487724 186.57866096 C-1.09494467 185.69499539 -1.09501209 184.81132981 -1.09508156 183.90088648 C-1.09626067 169.70873512 -1.10089168 155.5165869 -1.10683203 141.32443681 C-1.11273797 127.03691233 -1.11496332 112.74939096 -1.11350138 98.4618653 C-1.11274408 89.98614379 -1.11473905 81.51043371 -1.12079754 73.03471427 C-1.12457746 67.35568038 -1.1246428 61.67665387 -1.12183181 55.99761945 C-1.12033772 52.77287103 -1.12089148 49.54814803 -1.12488318 46.32340115 C-1.14290361 30.85438519 -0.82563752 15.44814921 0 0 Z " fill="#1AA29E" transform="translate(894,181)"/>
<path d="M0 0 C51.6192306 -0.04030303 51.6192306 -0.04030303 73.17773438 -0.04882812 C88.08911481 -0.05477186 103.00048961 -0.0617756 117.91186523 -0.07543945 C128.76961778 -0.08538411 139.62736577 -0.0918529 150.48512274 -0.09408849 C156.2380575 -0.09539597 161.99097924 -0.09848417 167.74390984 -0.10573006 C173.15200976 -0.11248683 178.56009122 -0.11461767 183.96819496 -0.11310768 C185.95928421 -0.11338416 187.95037404 -0.11539131 189.94145966 -0.11920547 C192.64739253 -0.12413737 195.35325453 -0.12300016 198.05918884 -0.12025452 C199.2571226 -0.12462378 199.2571226 -0.12462378 200.47925705 -0.12908131 C205.88587879 -0.11412121 205.88587879 -0.11412121 207 1 C207.09807612 4.16026775 207.12990232 7.29869997 207.12025452 10.45936584 C207.12153615 11.9674783 207.12153615 11.9674783 207.12284368 13.50605768 C207.12450152 16.902575 207.11897217 20.29904381 207.11352539 23.69555664 C207.11324356 26.11931863 207.11340117 28.54308071 207.1139679 30.96684265 C207.11419621 36.19920897 207.11134486 41.43156415 207.10573006 46.66392708 C207.09761718 54.2291279 207.09500006 61.7943227 207.09374207 69.3595274 C207.09155121 81.63234785 207.08489022 93.90516167 207.07543945 106.17797852 C207.0662662 118.10278286 207.05918494 130.02758542 207.05493164 141.95239258 C207.05466892 142.68693077 207.05440619 143.42146896 207.05413551 144.17826588 C207.05283051 147.86307676 207.05156679 151.54788766 207.05032361 155.23269856 C207.03994995 185.82180379 207.02225661 216.41090098 207 247 C206.34 247 205.68 247 205 247 C205 166.15 205 85.3 205 2 C137.68 2 70.36 2 1 2 C1 35.66 1 69.32 1 104 C34.66 104 68.32 104 103 104 C103 133.04 103 162.08 103 192 C102.67 192 102.34 192 102 192 C102 163.29 102 134.58 102 105 C68.34 105 34.68 105 0 105 C0 70.35 0 35.7 0 0 Z " fill="#1D8E9E" transform="translate(614,459)"/>
<path d="M0 0 C1.85625 0.6496875 1.85625 0.6496875 3.75 1.3125 C13.41741027 4.4986535 22.34739225 6.44905811 32.55028629 6.37473011 C34.20467881 6.3808212 34.20467881 6.3808212 35.8924934 6.38703534 C39.57234536 6.39694695 43.25181274 6.38557247 46.93165588 6.3742218 C49.60292942 6.37696356 52.27417742 6.38089278 54.94544452 6.38626546 C60.7450978 6.3955365 66.54466428 6.39372346 72.34431648 6.38453293 C80.96867376 6.37090386 89.59296468 6.37450815 98.21732682 6.38149153 C113.6219354 6.39340702 129.02650301 6.38834124 144.43110933 6.37621326 C157.9113967 6.36567266 171.39167013 6.36113833 184.87196159 6.36250877 C185.76650671 6.3625928 186.66105183 6.36267683 187.58270438 6.36276341 C191.21403987 6.36311567 194.84537535 6.36349968 198.47671083 6.36392899 C232.53295122 6.36789299 266.58916695 6.35518095 300.64540028 6.33440243 C330.89731409 6.31603176 361.14920426 6.31022067 391.40112305 6.31567383 C393.34376347 6.31602026 395.2864039 6.31636636 397.22904433 6.31671212 C398.18945269 6.31688311 399.14986105 6.31705411 400.13937269 6.31723029 C404.97402404 6.31808384 409.8086754 6.31890762 414.64332676 6.31969929 C415.59714665 6.31985637 416.55096655 6.32001345 417.53369007 6.32017529 C442.81871079 6.32416583 468.10372924 6.31868913 493.38874859 6.310188 C496.10961334 6.30928097 498.8304781 6.30837532 501.55134286 6.30747276 C503.35625946 6.30687165 505.16117607 6.30626303 506.96609267 6.30564686 C519.54562437 6.30142658 532.12515161 6.30084677 544.7046838 6.30275235 C560.91563208 6.30519582 577.1265564 6.30111943 593.33749814 6.28554235 C601.90912732 6.27749557 610.4807166 6.27488802 619.05234816 6.2801847 C624.77957638 6.28316393 630.50676937 6.27885269 636.23398916 6.26863613 C639.49591033 6.26301585 642.75773436 6.2615944 646.01965863 6.26680271 C649.5383723 6.27191128 653.05685715 6.26471879 656.57555485 6.25447559 C657.58123903 6.25887208 658.58692321 6.26326856 659.62308267 6.26779827 C669.05433557 6.21549513 677.91244966 4.400485 687 2 C683.84207754 5.90096304 679.46140423 7.71736975 674.57878835 8.27801514 C671.66879928 8.38869927 668.7723549 8.40320994 665.86027622 8.38590336 C664.74097785 8.39116247 663.62167948 8.39642158 662.46846297 8.40184006 C658.70278744 8.4158404 654.93745838 8.40841854 651.17176819 8.40113831 C648.45062752 8.40508539 645.72950485 8.41352301 643.00837415 8.42173427 C637.08414644 8.43719193 631.15999227 8.44144865 625.23574638 8.43836594 C616.42577346 8.43379283 607.61588197 8.44627284 598.80592487 8.46198981 C582.15434379 8.4910158 565.50279039 8.4994428 548.851187 8.50116099 C535.98964291 8.50253941 523.12810969 8.50871339 510.26656914 8.51826286 C506.56482028 8.5209555 502.86307141 8.52362494 499.16132253 8.5262875 C498.24105386 8.52695064 497.32078518 8.52761378 496.37262957 8.52829702 C470.48274775 8.54676267 444.59286969 8.55859844 418.702981 8.55726719 C417.72667597 8.55722045 416.75037095 8.55717372 415.74448092 8.55712556 C410.79614503 8.55687624 405.84780914 8.55657912 400.89947326 8.55627144 C399.91671567 8.55621161 398.93395809 8.55615177 397.92141998 8.55609012 C395.93404243 8.55596881 393.94666489 8.55584342 391.95928735 8.55571395 C361.05020846 8.55387635 330.14122836 8.57638184 299.23217773 8.61743164 C264.50527668 8.66353286 229.77844053 8.68932908 195.05150694 8.68654197 C191.34692887 8.68631808 187.64235082 8.68617196 183.93777275 8.68607903 C183.02561455 8.68604406 182.11345636 8.6860091 181.173657 8.68597308 C166.50532752 8.68588082 151.83708389 8.70502501 137.16877992 8.73087582 C122.41954733 8.7563311 107.67044009 8.7592552 92.92119766 8.73954786 C84.16388741 8.728477 75.40695841 8.73391031 66.6496887 8.76337488 C60.79213557 8.78141402 54.93485768 8.77744494 49.07731703 8.75596338 C45.74462017 8.74435055 42.41325695 8.74524462 39.08051873 8.76633544 C24.9024352 8.8500955 12.82439704 8.46509429 0 2 C0 1.34 0 0.68 0 0 Z " fill="#00322F" transform="translate(166,889)"/>
<path d="M0 0 C1.11351193 -0.00346153 2.22702386 -0.00692307 3.37427858 -0.01048949 C7.09605266 -0.01841417 10.81743539 -0.00498457 14.53918934 0.00837994 C17.23806278 0.00707131 19.93691126 0.00457021 22.63577968 0.00061244 C28.49854623 -0.00559156 34.36122121 -0.00070703 40.22397709 0.01152706 C48.94159666 0.02966785 57.65915876 0.03053116 66.37679377 0.0279011 C81.04278685 0.02396348 95.70873931 0.03396808 110.37472057 0.05195332 C124.89323789 0.06971202 139.41173828 0.0812527 153.93026638 0.08451176 C154.83340834 0.08471798 155.73655031 0.08492419 156.66706021 0.08513666 C161.25377093 0.08615168 165.84048167 0.08705582 170.42719243 0.08791729 C202.90421825 0.09421641 235.38122198 0.1144226 267.85823536 0.14282513 C299.40673677 0.17038376 330.95523213 0.19163199 362.50374317 0.20434856 C363.47642084 0.20474314 364.44909851 0.20513772 365.45125125 0.20554426 C375.21939214 0.20949986 384.98753308 0.2133273 394.75567405 0.21706083 C414.65402265 0.22466922 434.55237085 0.23313297 454.45071888 0.24211407 C455.82302176 0.24273187 455.82302176 0.24273187 457.22304794 0.24336216 C518.30335723 0.27095829 579.38365425 0.31849321 640.46394825 0.36914349 C640.46394825 0.69914349 640.46394825 1.02914349 640.46394825 1.36914349 C426.95394825 1.36914349 213.44394825 1.36914349 -6.53605175 1.36914349 C-6.53605175 2.02914349 -6.53605175 2.68914349 -6.53605175 3.36914349 C-10.49605175 3.36914349 -14.45605175 3.36914349 -18.53605175 3.36914349 C-18.53605175 4.02914349 -18.53605175 4.68914349 -18.53605175 5.36914349 C-20.51605175 5.36914349 -22.49605175 5.36914349 -24.53605175 5.36914349 C-18.63217326 -0.534735 -7.8182581 -0.06057794 0 0 Z " fill="#249B99" transform="translate(196.5360517501831,127.63085651397705)"/>
<path d="M0 0 C67.32 0 134.64 0 204 0 C204 81.18 204 162.36 204 246 C203.34 246 202.68 246 202 246 C201.97714112 217.22649796 201.9594665 188.452997 201.94893467 159.67948765 C201.9476841 156.27525737 201.94638977 152.87102712 201.94506836 149.46679688 C201.94467489 148.45030207 201.94467489 148.45030207 201.94427348 147.41327202 C201.93993331 136.46978244 201.93205492 125.52629816 201.9228472 114.58281171 C201.91346457 103.33685153 201.90800941 92.09089398 201.90591151 80.8449297 C201.90461192 74.53539829 201.90157385 68.22587887 201.89426994 61.91635132 C201.88743969 55.96731379 201.88539719 50.01829309 201.88689232 44.06925201 C201.88661912 41.89579425 201.88465583 39.72233588 201.88079453 37.54888153 C201.8607143 25.65413313 202.05663544 13.86166645 203 2 C176.9405111 1.97667423 150.88102375 1.95902241 124.82152653 1.94818783 C112.72256688 1.94302418 100.6236137 1.93598019 88.5246582 1.92456055 C77.98333194 1.91461579 67.44201036 1.90814707 56.90067953 1.90591151 C51.31541866 1.90460404 45.73017121 1.90151596 40.14491463 1.89426994 C34.89440352 1.88751301 29.64391142 1.88538237 24.39339638 1.88689232 C22.46035916 1.88661584 20.52732135 1.88460879 18.59428787 1.88079453 C15.96717739 1.87586238 13.34013991 1.87699993 10.71302795 1.87974548 C9.93775114 1.87683264 9.16247432 1.8739198 8.36370426 1.87091869 C4.89118936 1.56445691 4.89118936 1.56445691 2 3 C1.76807135 4.51469448 1.58784762 6.03754562 1.4375 7.5625 C1.35371094 8.38878906 1.26992188 9.21507812 1.18359375 10.06640625 C1.12300781 10.70449219 1.06242188 11.34257812 1 12 C0.67 12 0.34 12 0 12 C0 8.04 0 4.08 0 0 Z " fill="#003056" transform="translate(615,461)"/>
<path d="M0 0 C0.66 0 1.32 0 2 0 C1.10482218 8.72798377 -0.22239967 17.37798045 -1.5390625 26.05078125 C-1.79816406 27.77361328 -1.79816406 27.77361328 -2.0625 29.53125 C-2.21847656 30.55798828 -2.37445313 31.58472656 -2.53515625 32.64257812 C-3.59496288 40.29723189 -4.16634886 47.76841605 -4.203125 55.5 C-4.21013931 56.48531708 -4.21715363 57.47063416 -4.22438049 58.48580933 C-4.24182863 61.657253 -4.24823504 64.82851005 -4.25 68 C-4.25067474 69.08234924 -4.25134949 70.16469849 -4.25204468 71.27984619 C-4.23635887 87.08850192 -3.7618468 102.40208961 -1 118 C-0.83371094 119.0302832 -0.66742188 120.06056641 -0.49609375 121.12207031 C4.8298948 154.05443286 16.27540061 186.12702124 33.65039062 214.66162109 C34.49189117 216.07461977 35.2543359 217.53416459 36 219 C35.67 219.66 35.34 220.32 35 221 C34.34 219.35 33.68 217.7 33 216 C32.34 216 31.68 216 31 216 C30.10173962 214.37634035 29.20656137 212.75097559 28.3125 211.125 C27.81363281 210.22007812 27.31476563 209.31515625 26.80078125 208.3828125 C22.47834713 200.26301218 18.59053349 192.0034352 14.9375 183.5625 C14.51662109 182.60279297 14.09574219 181.64308594 13.66210938 180.65429688 C9.03289664 169.99634197 5.44902545 159.52546925 2.875 148.1875 C1.11455617 140.31042278 1.11455617 140.31042278 -1.14453125 132.5703125 C-2.03818345 129.88527531 -2.36164727 127.50371165 -2.5625 124.6875 C-2.56002019 121.53826567 -2.56002019 121.53826567 -4 119 C-8.80407221 92.61513463 -8.43902324 63.63301234 -6 37 C-5.94086426 36.33645508 -5.88172852 35.67291016 -5.82080078 34.98925781 C-4.7264852 23.15505627 -2.4743666 11.61510925 0 0 Z " fill="#1C9EA9" transform="translate(415,442)"/>
<path d="M0 0 C14.8258717 -1.2377815 29.57994576 3.12887959 43.4296875 8.10546875 C45.39698294 8.7901354 47.39147281 9.39710617 49.39453125 9.96875 C59.03376434 12.72580042 68.15812165 16.28757033 77 21 C78.20638914 21.60803951 79.41442283 22.212842 80.625 22.8125 C81.40875 23.204375 82.1925 23.59625 83 24 C83 24.66 83 25.32 83 26 C83.5878125 26.13277344 84.175625 26.26554687 84.78125 26.40234375 C96.84937189 29.65308785 107.56666131 39.20469841 117 47 C117.96550781 47.77988281 118.93101562 48.55976563 119.92578125 49.36328125 C127.54186186 55.52675841 127.54186186 55.52675841 130.1328125 58.203125 C131.97002962 60.22888242 131.97002962 60.22888242 135 61 C135 61.66 135 62.32 135 63 C135.66 63 136.32 63 137 63 C141.89225393 68.00873617 141.89225393 68.00873617 142.3125 71.875 C142.1578125 72.926875 142.1578125 72.926875 142 74 C141.01 74.33 140.02 74.66 139 75 C138.731875 75.7425 138.46375 76.485 138.1875 77.25 C136.59708454 80.93306739 134.11074755 82.53732486 131 85 C130.34 85.99 129.68 86.98 129 88 C128.34 88 127.68 88 127 88 C126.773125 88.556875 126.54625 89.11375 126.3125 89.6875 C124.64697681 92.62199324 122.37778824 94.62221176 120 97 C119.505 98.485 119.505 98.485 119 100 C118.34 100 117.68 100 117 100 C116.505 101.485 116.505 101.485 116 103 C114.12382302 104.84499398 112.07262391 106.3683599 110 108 C109.34 107.67 108.68 107.34 108 107 C108.43755615 106.5373877 108.8751123 106.07477539 109.32592773 105.59814453 C119.75285067 94.56690131 130.04418718 83.46038903 140 72 C138.40788842 67.89351707 135.44415392 65.32211929 132.25 62.4375 C131.38217896 61.64859375 131.38217896 61.64859375 130.49682617 60.84375 C93.47193682 27.58266723 49.04332986 8.32542404 0 1 C0 0.67 0 0.34 0 0 Z " fill="#1D9DA8" transform="translate(678,257)"/>
<path d="M0 0 C0.66 0 1.32 0 2 0 C1.18304359 6.4438584 -0.13274497 12.76455593 -1.4375 19.125 C-5.38148226 38.64096073 -7.25376252 57.46776369 -7.3125 77.375 C-7.31611542 78.31810028 -7.31973083 79.26120056 -7.32345581 80.23287964 C-7.34785365 96.14515162 -6.08061758 111.35885539 -3.45751953 127.05517578 C-2.78965369 131.35389389 -2.36577134 135.66631184 -2 140 C-2.66 139.67 -3.32 139.34 -4 139 C-4.57836914 137.16503906 -4.57836914 137.16503906 -5.03515625 134.765625 C-5.20426514 133.88704834 -5.37337402 133.00847168 -5.54760742 132.10327148 C-5.71752197 131.16169189 -5.88743652 130.2201123 -6.0625 129.25 C-6.23950439 128.29875244 -6.41650879 127.34750488 -6.59887695 126.36743164 C-7.73257906 120.06985795 -8.52696159 113.89136928 -8.82421875 107.49609375 C-8.91646574 105.07764324 -8.91646574 105.07764324 -9.49992371 103.10653687 C-10.01526072 100.93571526 -10.14644475 99.027476 -10.17700195 96.79931641 C-10.18965591 95.97443222 -10.20230988 95.14954803 -10.21534729 94.29966736 C-10.2229155 93.40929276 -10.2304837 92.51891815 -10.23828125 91.6015625 C-10.24798447 90.66691666 -10.25768768 89.73227081 -10.26768494 88.76930237 C-10.2927493 85.72115825 -10.30523854 82.67323715 -10.3125 79.625 C-10.31511841 78.58856354 -10.31773682 77.55212708 -10.32043457 76.48428345 C-10.32676786 53.10065963 -8.11146212 30.64835961 -2 8 C-1.32475228 5.33541377 -0.66254866 2.66778444 0 0 Z " fill="#1DA0AA" transform="translate(213,434)"/>
<path d="M0 0 C1.45606519 4.52092968 0.27032841 7.51648796 -1 12 C-1.66 12 -2.32 12 -3 12 C-2.938125 12.763125 -2.87625 13.52625 -2.8125 14.3125 C-3.0268338 18.52773137 -4.0511923 22.11361824 -5.203125 26.15625 C-9.12304799 40.14499479 -9.08689803 54.32477453 -9.125 68.75 C-9.12967285 69.98145752 -9.1343457 71.21291504 -9.13916016 72.48168945 C-9.11932553 83.81718078 -8.14455186 94.38515266 -5.625 105.4375 C-5.40166992 106.44159912 -5.17833984 107.44569824 -4.94824219 108.48022461 C-3.5894333 114.54521206 -2.17046611 120.58934592 -0.578125 126.59765625 C0.09157052 129.38051263 0.55688124 132.17306643 1 135 C-2.04177118 131.95822882 -2.66954309 128.25357091 -3.875 124.1875 C-4.13821045 123.30328369 -4.4014209 122.41906738 -4.67260742 121.50805664 C-6.5381487 115.0404294 -8.04982427 108.54822619 -9.3125 101.9375 C-9.47153809 101.10694092 -9.63057617 100.27638184 -9.79443359 99.4206543 C-13.81622104 77.16809106 -13.59807797 53.13007294 -9 31 C-8.85014648 30.25476074 -8.70029297 29.50952148 -8.54589844 28.74169922 C-6.51616256 18.83219252 -3.6479608 9.43386584 0 0 Z " fill="#1B9EA9" transform="translate(524,444)"/>
<path d="M0 0 C0.99 0.495 0.99 0.495 2 1 C0.89591797 1.99580078 0.89591797 1.99580078 -0.23046875 3.01171875 C-1.20628906 3.89472656 -2.18210937 4.77773438 -3.1875 5.6875 C-4.63189453 6.99267578 -4.63189453 6.99267578 -6.10546875 8.32421875 C-9.55117054 11.50951662 -12.84418725 14.81680399 -16.12280273 18.1730957 C-18.61789143 20.72516025 -21.12125846 23.2689262 -23.625 25.8125 C-24.48351562 26.69615234 -25.34203125 27.57980469 -26.2265625 28.49023438 C-27.0515625 29.32490234 -27.8765625 30.15957031 -28.7265625 31.01953125 C-29.47502441 31.78370361 -30.22348633 32.54787598 -30.99462891 33.33520508 C-33 35 -33 35 -36 35 C-36.25136719 35.56203125 -36.50273437 36.1240625 -36.76171875 36.703125 C-38.18415031 39.3415785 -39.89467851 41.44714743 -41.8125 43.75 C-44.41769461 46.93675348 -46.76752947 50.08948228 -48.875 53.625 C-49.57625 54.73875 -50.2775 55.8525 -51 57 C-51.66 57 -52.32 57 -53 57 C-53.0928125 57.56460938 -53.185625 58.12921875 -53.28125 58.7109375 C-54.17772579 61.566018 -55.61232659 63.31182643 -57.5 65.625 C-59.99731843 68.65363484 -59.99731843 68.65363484 -62 72 C-62.66 71.67 -63.32 71.34 -64 71 C-47.5409521 45.84755102 -28.90803188 22.12986543 -4.66015625 4.00390625 C-2.01597474 2.10886212 -2.01597474 2.10886212 0 0 Z " fill="#209FAA" transform="translate(488,276)"/>
<path d="M0 0 C-0.94915283 0.41342651 -0.94915283 0.41342651 -1.91748047 0.83520508 C-15.92570608 6.98043048 -29.26865687 13.49779697 -42 22 C-42.93827637 22.62406738 -42.93827637 22.62406738 -43.89550781 23.26074219 C-52.63108599 29.1357097 -60.59986387 35.76300674 -68.50048828 42.70605469 C-70.61784588 44.53314607 -72.80134877 46.27219586 -75 48 C-75 44 -75 44 -73.3203125 42.078125 C-72.59585937 41.47484375 -71.87140625 40.8715625 -71.125 40.25 C-70.40570313 39.63640625 -69.68640625 39.0228125 -68.9453125 38.390625 C-67 37 -67 37 -65 37 C-65 36.34 -65 35.68 -65 35 C-64.34 35 -63.68 35 -63 35 C-63 34.34 -63 33.68 -63 33 C-61.68 33 -60.36 33 -59 33 C-59 32.34 -59 31.68 -59 31 C-58.34 31 -57.68 31 -57 31 C-57 30.34 -57 29.68 -57 29 C-56.0409375 28.566875 -56.0409375 28.566875 -55.0625 28.125 C-52.84793921 27.17176549 -52.84793921 27.17176549 -52 25 C-51.01 25 -50.02 25 -49 25 C-49 24.34 -49 23.68 -49 23 C-48.01 23 -47.02 23 -46 23 C-46 22.34 -46 21.68 -46 21 C-45.01 21 -44.02 21 -43 21 C-43 20.34 -43 19.68 -43 19 C-40 17 -40 17 -37 17 C-37 16.34 -37 15.68 -37 15 C-31.70031269 11.35646497 -25.4482211 7.80602764 -19 7 C-19 6.34 -19 5.68 -19 5 C-15.91190305 3.23537317 -14.76687864 3 -11 3 C-11 2.34 -11 1.68 -11 1 C-3.375 -1.125 -3.375 -1.125 0 0 Z " fill="#1BA1A9" transform="translate(560,272)"/>
<path d="M0 0 C0 0.66 0 1.32 0 2 C-0.52207031 2.21914063 -1.04414062 2.43828125 -1.58203125 2.6640625 C-25.56007688 12.99435887 -50.03250374 30.06500747 -62 54 C-62.66 54 -63.32 54 -64 54 C-64.24492188 54.64324219 -64.48984375 55.28648437 -64.7421875 55.94921875 C-66.40004252 59.97028946 -68.26100738 63.8836251 -70.125 67.8125 C-70.49753906 68.60076172 -70.87007812 69.38902344 -71.25390625 70.20117188 C-72.16795524 72.13473705 -73.08379842 74.06745388 -74 76 C-74.66 76 -75.32 76 -76 76 C-71.57354595 61.35163144 -62.52220913 48.75610848 -53 37 C-52.2884375 36.11441406 -51.576875 35.22882813 -50.84375 34.31640625 C-45.86499129 28.42963622 -40.09934102 23.68730179 -34 19 C-33.10023438 18.30777344 -32.20046875 17.61554688 -31.2734375 16.90234375 C-8.67184489 0 -8.67184489 0 0 0 Z " fill="#1E9DA9" transform="translate(601,367)"/>
<path d="M0 0 C3.56896152 2.98627393 7.01831343 5.96343983 10.25 9.3125 C14.82923989 13.95279642 19.89956239 17.95161088 25 22 C25.96679688 22.78375 26.93359375 23.5675 27.9296875 24.375 C45.00714783 37.93267843 64.63246314 50.1182748 85 58 C79.27613364 59.90795545 73.02326058 55.55449396 67.8125 53 C61.59316009 49.79082061 55.77157876 46.24435946 50.015625 42.26953125 C47.93068429 40.84466227 47.93068429 40.84466227 45 40 C45 39.34 45 38.68 45 38 C44.38125 37.855625 43.7625 37.71125 43.125 37.5625 C41 37 41 37 39 36 C39 35.34 39 34.68 39 34 C38.113125 33.773125 37.22625 33.54625 36.3125 33.3125 C32.52082069 31.8101365 30.78686335 29.92977942 28 27 C27.071875 26.443125 26.14375 25.88625 25.1875 25.3125 C24.465625 24.879375 23.74375 24.44625 23 24 C23 23.34 23 22.68 23 22 C22.278125 21.773125 21.55625 21.54625 20.8125 21.3125 C17.3998024 19.71990779 15.62687782 17.70896775 13 15 C11.89200125 13.91003107 10.781187 12.8229188 9.66796875 11.73828125 C8.50775071 10.59641694 7.34759529 9.45448901 6.1875 8.3125 C5.59001953 7.73177734 4.99253906 7.15105469 4.37695312 6.55273438 C2.87985327 5.07274424 1.43511269 3.54017218 0 2 C0 1.34 0 0.68 0 0 Z " fill="#1FA1AC" transform="translate(273,691)"/>
<path d="M0 0 C4.8274799 1.41292095 8.7162359 3.42974154 13 6 C13 6.66 13 7.32 13 8 C13.80824219 8.25910156 14.61648438 8.51820313 15.44921875 8.78515625 C20.39825768 10.47839179 25.24180485 12.41842647 30.10351562 14.34570312 C34.71948228 16.15982131 39.34433443 17.80296198 44.08569336 19.26147461 C49.55736758 21.37240619 51.9016779 26.35829031 54.4609375 31.25390625 C55.68817864 33.44362839 56.96360549 35.50352636 58.3515625 37.58984375 C58.76631836 38.2144751 59.18107422 38.83910645 59.60839844 39.48266602 C60.44469177 40.73210889 61.2889712 41.97624768 62.14160156 43.21459961 C63.17155291 44.76103999 64.09482863 46.3773656 65 48 C64.67 48.99 64.34 49.98 64 51 C47 25.96177062 47 25.96177062 47 22 C46.38543945 21.89768066 45.77087891 21.79536133 45.13769531 21.68994141 C38.97827034 20.57485283 33.48210476 18.86748122 27.75 16.375 C26.93587646 16.02598633 26.12175293 15.67697266 25.28295898 15.31738281 C6.51441526 7.09521854 6.51441526 7.09521854 0 0 Z " fill="#1D9AA5" transform="translate(370,641)"/>
<path d="M0 0 C1.78722977 -0.00472824 1.78722977 -0.00472824 3.61056519 -0.009552 C4.90841949 -0.00752777 6.2062738 -0.00550354 7.54345703 -0.00341797 C8.88005593 -0.00409121 10.2166547 -0.00506141 11.55325317 -0.00631714 C14.35940716 -0.00779416 17.16552938 -0.0056401 19.97167969 -0.00097656 C23.5686796 0.00470975 27.16560471 0.00144875 30.76260185 -0.00454903 C33.52495893 -0.00816391 36.2872983 -0.00701159 39.04965591 -0.00442123 C41.02113137 -0.0034292 42.99260752 -0.00646752 44.96408081 -0.009552 C46.16187164 -0.00639984 47.35966248 -0.00324768 48.59375 0 C50.17807327 0.00119339 50.17807327 0.00119339 51.79440308 0.00241089 C54.42626953 0.12939453 54.42626953 0.12939453 57.42626953 1.12939453 C59.79772166 1.4677672 62.17349265 1.77627736 64.55126953 2.06689453 C70.26657848 2.79973241 75.86472891 3.59517643 81.42626953 5.12939453 C81.92126953 6.11939453 81.92126953 6.11939453 82.42626953 7.12939453 C75.55065702 6.583711 68.86825988 5.56755994 62.1081543 4.23364258 C50.05492752 1.96170214 37.82854638 1.9429198 25.60693359 1.9440918 C23.06216724 1.9419039 20.51783485 1.92366923 17.97314453 1.90478516 C9.00332067 1.87509096 0.3700556 2.28942353 -8.49414062 3.69848633 C-11.24246222 4.08304219 -13.80502944 4.21128386 -16.57373047 4.12939453 C-13.12314361 1.82900329 -10.63277545 1.65556703 -6.57373047 1.12939453 C-4.82274448 -0.62159145 -2.37775342 0.00179374 0 0 Z " fill="#1EA3AD" transform="translate(425.57373046875,254.87060546875)"/>
<path d="M0 0 C1.12893173 -0.00855011 1.12893173 -0.00855011 2.28067017 -0.01727295 C3.87248347 -0.02668503 5.46431592 -0.03324178 7.05615234 -0.03710938 C9.43494111 -0.04670707 11.81282374 -0.07771992 14.19140625 -0.109375 C24.49421549 -0.1784944 34.05746538 0.91747668 44.1015625 3.203125 C44.1015625 3.533125 44.1015625 3.863125 44.1015625 4.203125 C42.45581684 4.23000651 40.80994837 4.24946623 39.1640625 4.265625 C37.78927734 4.28302734 37.78927734 4.28302734 36.38671875 4.30078125 C34.1015625 4.203125 34.1015625 4.203125 33.1015625 3.203125 C14.49202529 1.16731375 -5.27108882 1.39103443 -23.3671875 6.5390625 C-27.18872437 7.54162619 -30.96686816 7.87549422 -34.8984375 8.203125 C-32.70224316 6.00693066 -31.69536229 5.70640736 -28.7578125 4.94921875 C-27.93410156 4.73458984 -27.11039063 4.51996094 -26.26171875 4.29882812 C-25.39933594 4.08162109 -24.53695312 3.86441406 -23.6484375 3.640625 C-22.80152344 3.41955078 -21.95460938 3.19847656 -21.08203125 2.97070312 C-14.00919625 1.15024559 -7.32735199 0.04408969 0 0 Z " fill="#1BA1AB" transform="translate(636.8984375,358.796875)"/>
<path d="M0 0 C-5.89735327 2.60844471 -11.02510253 3.44690419 -17.4609375 3.7890625 C-19.99159354 3.84095214 -19.99159354 3.84095214 -22 5 C-23.83254452 5.09606997 -25.66860168 5.1279588 -27.50366211 5.12939453 C-29.23071632 5.13412277 -29.23071632 5.13412277 -30.99266052 5.13894653 C-32.24160599 5.1369223 -33.49055145 5.13489807 -34.77734375 5.1328125 C-36.05476944 5.13376923 -37.33219513 5.13472595 -38.64833069 5.13571167 C-41.3543738 5.13639329 -44.0603271 5.13503955 -46.76635742 5.13037109 C-50.23441418 5.12467959 -53.70239345 5.12795012 -57.17044735 5.13394356 C-60.47691559 5.13842768 -63.7833745 5.13528702 -67.08984375 5.1328125 C-68.33676498 5.13483673 -69.58368622 5.13686096 -70.86839294 5.13894653 C-72.02291458 5.13579437 -73.17743622 5.13264221 -74.36694336 5.12939453 C-75.89344765 5.12820114 -75.89344765 5.12820114 -77.45079041 5.12698364 C-80 5 -80 5 -83 4 C-86.1256626 3.73317514 -89.250836 3.55540852 -92.3828125 3.37890625 C-93.24648438 3.25386719 -94.11015625 3.12882813 -95 3 C-95.33 2.34 -95.66 1.68 -96 1 C-93.89573314 1.14438035 -91.79159231 1.29059774 -89.6875 1.4375 C-88.51574219 1.51871094 -87.34398437 1.59992187 -86.13671875 1.68359375 C-83.99344572 1.83557655 -81.86233553 2.01510717 -79.72631836 2.24951172 C-70.55977894 3.22744097 -61.39606328 3.23960325 -52.1875 3.25 C-51.32504669 3.25200409 -50.46259338 3.25400818 -49.57400513 3.256073 C-35.00433481 3.26436189 -20.99681459 2.19416962 -6.69140625 -0.66015625 C-4.08220974 -0.98961938 -2.46201283 -0.85223521 0 0 Z " fill="#1EA4AE" transform="translate(505,764)"/>
<path d="M0 0 C0 0.33 0 0.66 0 1 C-1.0415625 1.1959375 -2.083125 1.391875 -3.15625 1.59375 C-21.88013989 5.39005556 -37.6226746 13.26021654 -49.30859375 28.80078125 C-50.77012563 30.70111023 -52.26103208 32.35675508 -54 34 C-53.40844996 27.49294951 -48.81372084 22.14975934 -44 18 C-43.34 18 -42.68 18 -42 18 C-42 17.34 -42 16.68 -42 16 C-40.35 15.34 -38.7 14.68 -37 14 C-37 13.34 -37 12.68 -37 12 C-34.35261084 10.5393715 -33.10551666 10 -30 10 C-30 9.34 -30 8.68 -30 8 C-29.28972656 7.66226563 -28.57945312 7.32453125 -27.84765625 6.9765625 C-26.92855469 6.53054687 -26.00945312 6.08453125 -25.0625 5.625 C-23.68771484 4.96371094 -23.68771484 4.96371094 -22.28515625 4.2890625 C-19.87096198 3.20800838 -19.87096198 3.20800838 -19 1 C-12.67859027 -0.17063143 -6.41157971 -0.10607393 0 0 Z " fill="#05302E" transform="translate(191,127)"/>
<path d="M0 0 C0.66 0.33 1.32 0.66 2 1 C1.43152344 1.4125 0.86304688 1.825 0.27734375 2.25 C-4.34487145 5.70701571 -8.2248859 9.19581383 -11.9140625 13.62109375 C-15.6983006 17.93682597 -19.83803252 21.91127102 -23.9140625 25.94921875 C-24.43540771 26.46629395 -24.95675293 26.98336914 -25.49389648 27.51611328 C-26.88541993 28.88711012 -28.29169412 30.24309203 -29.69921875 31.59765625 C-31.87833408 33.87296343 -33.52064914 36.08661364 -35.1875 38.75 C-37.78769602 42.89384801 -37.78769602 42.89384801 -40 44 C-34.16763058 26.40175239 -15.07895561 9.81229336 0 0 Z " fill="#19A6AD" transform="translate(371,381)"/>
<path d="M0 0 C1.31053848 0.0028299 2.62107697 0.00565979 3.97132874 0.00857544 C7.3989168 0.01608926 10.82632615 0.03562673 14.25384521 0.0579834 C17.77402328 0.07871145 21.29423118 0.08763382 24.81445312 0.09765625 C31.67975935 0.11888884 38.54494915 0.15286963 45.41015625 0.1953125 C45.41015625 0.8553125 45.41015625 1.5153125 45.41015625 2.1953125 C44.82229843 2.18865067 44.23444061 2.18198883 43.62876892 2.17512512 C37.38058073 2.10754807 31.13249987 2.06301879 24.8840332 2.03051758 C22.56758392 2.01564497 20.25116165 1.99534075 17.93481445 1.96899414 C3.04680735 1.80418225 -11.2414923 2.58438672 -25.95993042 4.83456421 C-30.48705992 5.45555586 -35.03609182 5.82816742 -39.58984375 6.1953125 C-27.63111569 -0.24400261 -13.24015071 -0.11066524 0 0 Z " fill="#1D9FAB" transform="translate(632.58984375,254.8046875)"/>
<path d="M0 0 C0 0.33 0 0.66 0 1 C-0.62648438 1.06058594 -1.25296875 1.12117187 -1.8984375 1.18359375 C-3.12433594 1.30927734 -3.12433594 1.30927734 -4.375 1.4375 C-5.59316406 1.55931641 -5.59316406 1.55931641 -6.8359375 1.68359375 C-9.04272805 1.89090114 -9.04272805 1.89090114 -11 3 C-12.97559868 3.20466634 -14.95588811 3.36549059 -16.9375 3.5 C-20.23044938 3.7240646 -22.86163082 3.95387694 -26 5 C-27.69626337 5.09261451 -29.39593739 5.12791543 -31.09472656 5.12939453 C-32.65214569 5.13412277 -32.65214569 5.13412277 -34.24102783 5.13894653 C-35.3628949 5.1369223 -36.48476196 5.13489807 -37.640625 5.1328125 C-39.37394073 5.13424759 -39.37394073 5.13424759 -41.14227295 5.13571167 C-43.59012913 5.13639277 -46.03798712 5.13454339 -48.48583984 5.13037109 C-52.22107037 5.12504128 -55.95617958 5.13030846 -59.69140625 5.13671875 C-62.07031276 5.13605758 -64.4492192 5.1347756 -66.828125 5.1328125 C-67.94189514 5.13483673 -69.05566528 5.13686096 -70.20318604 5.13894653 C-75.57647027 5.12282926 -80.70746087 4.95001549 -86 4 C-86 3.67 -86 3.34 -86 3 C-84.71762451 3.01571045 -83.43524902 3.0314209 -82.11401367 3.04760742 C-45.17280404 3.54737982 -45.17280404 3.54737982 -8.52734375 -0.625 C-5.48744305 -1.07605173 -2.98847794 -0.64038813 0 0 Z " fill="#1DA0AB" transform="translate(704,764)"/>
<path d="M0 0 C5.94 0 11.88 0 18 0 C15 2 15 2 12.9140625 3.15625 C6.43959631 6.95696053 3.72482787 11.0715432 1 18 C0.67 18 0.34 18 0 18 C0 12.06 0 6.12 0 0 Z " fill="#FAFAFA" transform="translate(0,0)"/>
<path d="M0 0 C5.94 0 11.88 0 18 0 C18 5.94 18 11.88 18 18 C16 15 16 15 14.9921875 13.1328125 C11.90639269 7.58701344 8.51719564 4.97790058 3 2 C2.01 1.34 1.02 0.68 0 0 Z " fill="#F8F9F9" transform="translate(1006,0)"/>
<path d="M0 0 C0.33 0 0.66 0 1 0 C1 5.94 1 11.88 1 18 C-4.61 18 -10.22 18 -16 18 C-12 15 -12 15 -9.0625 13.3125 C-4.46382581 9.84003174 -1.81378964 5.44136892 0 0 Z " fill="#F7F7F7" transform="translate(1023,1006)"/>
<path d="M0 0 C3.41916726 1.70958363 4.49254956 5.55818373 6.125 8.875 C6.49753906 9.60847656 6.87007813 10.34195313 7.25390625 11.09765625 C7.60582031 11.80535156 7.95773437 12.51304687 8.3203125 13.2421875 C8.64273926 13.8904248 8.96516602 14.53866211 9.29736328 15.20654297 C10 17 10 17 10 20 C10.66 20 11.32 20 12 20 C12.66 21.98 13.32 23.96 14 26 C14.66 26 15.32 26 16 26 C16.97500613 27.48410743 17.87675907 29.0163234 18.75 30.5625 C22.04621668 35.92146538 25.88205633 40.42003697 30.1875 45 C31.09677246 45.96981812 31.09677246 45.96981812 32.02441406 46.95922852 C34.84894938 49.91906391 37.59155663 52.69951217 41 55 C40.505 55.99 40.505 55.99 40 57 C22.55027745 42.08841891 9.13253395 24.1760631 0 3 C0 2.01 0 1.02 0 0 Z " fill="#1FA0AB" transform="translate(321,578)"/>
<path d="M0 0 C5.19764973 0.56408602 9.11389827 2.26199995 13.6875 4.625 C14.39011963 4.98327881 15.09273926 5.34155762 15.81665039 5.71069336 C30.69682947 13.41179392 45.71574077 23.58574883 56 37 C51.45649764 35.61170761 49.90521969 33.65227618 47 30 C44.91683585 28.36638187 42.78649316 26.83773888 40.609375 25.33203125 C40.07828125 24.89246094 39.5471875 24.45289063 39 24 C39 23.34 39 22.68 39 22 C37.8553125 21.5978125 37.8553125 21.5978125 36.6875 21.1875 C34.07686496 20.03396359 32.92614911 19.01370135 31 17 C30.01 16.67 29.02 16.34 28 16 C28 15.34 28 14.68 28 14 C27.41968018 13.87544434 26.83936035 13.75088867 26.24145508 13.62255859 C23.97975096 12.99437588 22.19341979 12.16080626 20.13671875 11.0390625 C19.41419922 10.64976562 18.69167969 10.26046875 17.94726562 9.859375 C17.20154297 9.45203125 16.45582031 9.0446875 15.6875 8.625 C10.5392021 5.82259026 5.42713726 3.22247365 0 1 C0 0.67 0 0.34 0 0 Z " fill="#1EA0AA" transform="translate(694,367)"/>
<path d="M0 0 C1.06135171 1.59202756 2.10989492 3.19674072 3.04296875 4.8671875 C6.01073001 10.07343081 8.93332862 12.80987358 14 16 C14.99 16.66 15.98 17.32 17 18 C11.39 18 5.78 18 0 18 C0 12.06 0 6.12 0 0 Z " fill="#F9F9F9" transform="translate(0,1006)"/>
<path d="M0 0 C4.67676988 2.50582485 9.21153348 5.11537342 13.625 8.0625 C27.48114666 16.96165898 42.51057233 24.42086965 58 30 C54.1756164 31.27479453 52.50713272 30.49759942 48.6875 29.3125 C47.57761719 28.97863281 46.46773437 28.64476562 45.32421875 28.30078125 C41.80402944 26.92331587 39.10636349 25.13966964 36 23 C33.78878832 21.84010693 31.5585071 20.7159909 29.3125 19.625 C28.07228426 19.01299865 26.83270737 18.3997011 25.59375 17.78515625 C24.9853125 17.48367676 24.376875 17.18219727 23.75 16.87158203 C15.34773451 12.68685996 7.1556103 8.14524366 0 2 C0 1.34 0 0.68 0 0 Z " fill="#1DA0AB" transform="translate(508,724)"/>
<path d="M0 0 C0.33 0 0.66 0 1 0 C1.15968262 0.62640381 1.31936523 1.25280762 1.48388672 1.89819336 C5.58491901 17.762713 10.76460908 32.80297308 17.19311523 47.87475586 C18 50 18 50 18 52 C17.34 52 16.68 52 16 52 C-0.48242701 13.43903812 -0.48242701 13.43903812 0 0 Z " fill="#1D9CA8" transform="translate(211,574)"/>
<path d="M0 0 C2.1462026 0.14029419 4.29196218 0.28738164 6.4375 0.4375 C7.63246094 0.51871094 8.82742188 0.59992187 10.05859375 0.68359375 C13 1 13 1 14 2 C20.01213543 3.0793711 26.10280809 3.13770074 32.19140625 3.09765625 C33.43747902 3.09553383 33.43747902 3.09553383 34.70872498 3.09336853 C37.32668875 3.0878317 39.94456267 3.07529162 42.5625 3.0625 C44.35221229 3.05747681 46.14192595 3.05291535 47.93164062 3.04882812 C52.28779433 3.03788308 56.643882 3.02066319 61 3 C61 3.33 61 3.66 61 4 C56.26744766 4.92600475 51.65508249 5.17518736 46.84765625 5.203125 C45.68187294 5.21167511 45.68187294 5.21167511 44.49253845 5.22039795 C42.8494501 5.22981081 41.20634319 5.23636709 39.56323242 5.24023438 C37.10104392 5.24984948 34.63972423 5.2808695 32.17773438 5.3125 C8.20959938 5.47306625 8.20959938 5.47306625 0 0 Z " fill="#1D9DA9" transform="translate(613,660)"/>
<path d="M0 0 C0.66 0.33 1.32 0.66 2 1 C1.41734375 1.6084375 0.8346875 2.216875 0.234375 2.84375 C-10.44806392 14.26522557 -19.54098586 26.86364864 -28 40 C-28.495 38.515 -28.495 38.515 -29 37 C-28.67 36.34 -28.34 35.68 -28 35 C-27.34 35 -26.68 35 -26 35 C-25.855625 34.38125 -25.71125 33.7625 -25.5625 33.125 C-25 31 -25 31 -24 29 C-23.34 29 -22.68 29 -22 29 C-22 28.01 -22 27.02 -22 26 C-21.34 26 -20.68 26 -20 26 C-19.731875 25.236875 -19.46375 24.47375 -19.1875 23.6875 C-18.01888538 21.0427406 -16.99065202 19.99065202 -15 18 C-13.80972016 15.40084462 -13.80972016 15.40084462 -13 13 C-12.01 13 -11.02 13 -10 13 C-10 12.01 -10 11.02 -10 10 C-9.34 10 -8.68 10 -8 10 C-7.34 8.68 -6.68 7.36 -6 6 C-5.34 6 -4.68 6 -4 6 C-4 5.01 -4 4.02 -4 3 C-3.34 3 -2.68 3 -2 3 C-2 2.34 -2 1.68 -2 1 C-1.34 0.67 -0.68 0.34 0 0 Z " fill="#1D9FA9" transform="translate(271,332)"/>
<path d="M0 0 C4.21878192 -0.19622241 7.17010894 0.19769832 11 2 C11 2.66 11 3.32 11 4 C29.15 4.33 47.3 4.66 66 5 C66 5.33 66 5.66 66 6 C59.95345349 6.02493184 53.90693767 6.04296863 47.86035156 6.05493164 C45.80826292 6.05992495 43.75617777 6.06672191 41.70410156 6.07543945 C11.40823243 6.20081184 11.40823243 6.20081184 4.25 2.9375 C3.02023438 2.39416016 3.02023438 2.39416016 1.765625 1.83984375 C1.18296875 1.56269531 0.6003125 1.28554688 0 1 C0 0.67 0 0.34 0 0 Z " fill="#12ABA6" transform="translate(168,889)"/>
<path d="M0 0 C0.66 0.33 1.32 0.66 2 1 C0.89591797 1.99580078 0.89591797 1.99580078 -0.23046875 3.01171875 C-1.20628906 3.89472656 -2.18210937 4.77773438 -3.1875 5.6875 C-4.63189453 6.99267578 -4.63189453 6.99267578 -6.10546875 8.32421875 C-8.80938065 10.82378643 -11.41135018 13.38159558 -14 16 C-15.47456707 17.47595343 -16.94990723 18.95113469 -18.42578125 20.42578125 C-19.22177734 21.22177734 -20.01777344 22.01777344 -20.83789062 22.83789062 C-24.55859375 26.55859375 -28.27929688 30.27929688 -32 34 C-32 31 -32 31 -30.85424805 29.54541016 C-30.32871338 29.04831543 -29.80317871 28.5512207 -29.26171875 28.0390625 C-28.68873047 27.48476563 -28.11574219 26.93046875 -27.52539062 26.359375 C-26.91888672 25.78703125 -26.31238281 25.2146875 -25.6875 24.625 C-21.1354517 20.4182473 -21.1354517 20.4182473 -17.5234375 15.44140625 C-15.31233368 11.89797065 -12.25290893 9.79146802 -8.9375 7.3125 C-4.29995827 3.85477073 -4.29995827 3.85477073 0 0 Z " fill="#0BACAA" transform="translate(488,276)"/>
<path d="M0 0 C12.506563 0.63592693 25.80617229 5.85319077 34.79296875 14.78125 C36.1875 16.4375 36.1875 16.4375 38 19 C36.68 18.67 35.36 18.34 34 18 C34 17.34 34 16.68 34 16 C33.01 16 32.02 16 31 16 C29.31183067 14.35511706 27.64646685 12.68662458 26 11 C24.128316 9.94414936 24.128316 9.94414936 22 9 C21.20464844 8.60941406 20.40929687 8.21882812 19.58984375 7.81640625 C13.18943233 4.79058583 6.88472823 2.63795275 0 1 C0 0.67 0 0.34 0 0 Z " fill="#229E9A" transform="translate(837,129)"/>
<path d="M0 0 C0.66 0.33 1.32 0.66 2 1 C1.33355469 1.81339844 0.66710937 2.62679688 -0.01953125 3.46484375 C-7.37355609 12.56623977 -13.79482968 22.0861302 -20 32 C-20.33 30.68 -20.66 29.36 -21 28 C-20.34 28 -19.68 28 -19 28 C-19 27.01 -19 26.02 -19 25 C-18.34 25 -17.68 25 -17 25 C-17 24.01 -17 23.02 -17 22 C-16.34 22 -15.68 22 -15 22 C-15 21.01 -15 20.02 -15 19 C-14.34 19 -13.68 19 -13 19 C-12.896875 18.46375 -12.79375 17.9275 -12.6875 17.375 C-11.81907303 14.37497956 -10.44379704 11.7620465 -9 9 C-8.34 9 -7.68 9 -7 9 C-7 8.34 -7 7.68 -7 7 C-6.34 7 -5.68 7 -5 7 C-4.731875 6.401875 -4.46375 5.80375 -4.1875 5.1875 C-3.01506533 3.02775192 -1.80630718 1.64209744 0 0 Z " fill="#1C9FA9" transform="translate(468,336)"/>
<path d="M0 0 C0.66 0.33 1.32 0.66 2 1 C-1.37298853 3.84754811 -5.05187031 5.42193683 -9.125 7 C-9.78862549 7.25982666 -10.45225098 7.51965332 -11.13598633 7.78735352 C-26.14889031 13.587835 -26.14889031 13.587835 -31 12 C-28.05708188 10.45885707 -25.09823418 9.24713609 -21.97265625 8.125 C-21.01552734 7.77953125 -20.05839844 7.4340625 -19.07226562 7.078125 C-18.07904297 6.72234375 -17.08582031 6.3665625 -16.0625 6 C-14.09479048 5.29239371 -12.12733391 4.58408354 -10.16015625 3.875 C-9.29011963 3.56304688 -8.42008301 3.25109375 -7.52368164 2.9296875 C-5.76233177 2.2808319 -4.02228635 1.57242172 -2.30249023 0.8203125 C-1.54266846 0.54960938 -0.78284668 0.27890625 0 0 Z " fill="#1A9FA9" transform="translate(758,745)"/>
<path d="M0 0 C0.66 0 1.32 0 2 0 C0.70876709 4.10415399 -0.82141613 7.91178654 -2.71484375 11.7734375 C-3.49698242 13.3821875 -3.49698242 13.3821875 -4.29492188 15.0234375 C-4.83697266 16.12945312 -5.37902344 17.23546875 -5.9375 18.375 C-9.26411359 25.1636821 -12.50600984 31.85693411 -15 39 C-16.31538327 34.84228506 -15.34433068 32.1120703 -14 28 C-13.34 28 -12.68 28 -12 28 C-11.9175 27.154375 -11.835 26.30875 -11.75 25.4375 C-11.01786075 22.08186177 -9.82788281 19.76940486 -8.04296875 16.86328125 C-6.93820711 14.88960596 -6.18530641 12.94513308 -5.4375 10.8125 C-4.35704985 7.75417663 -3.06232315 5.53103296 -1 3 C-0.67 2.01 -0.34 1.02 0 0 Z " fill="#1E9EA9" transform="translate(237,377)"/>
<path d="M0 0 C1.1700097 3.91736581 0.69584017 6.97959015 0 11 C-0.66 11 -1.32 11 -2 11 C-2.33 22.88 -2.66 34.76 -3 47 C-3.33 47 -3.66 47 -4 47 C-4.10006747 42.23524872 -4.17202322 37.47113016 -4.21972656 32.70556641 C-4.23964532 31.08989791 -4.26679074 29.4742996 -4.30175781 27.85888672 C-4.51328513 17.82378198 -4.09813155 9.38365861 0 0 Z " fill="#18ABA8" transform="translate(133,169)"/>
<path d="M0 0 C3.17176751 1.47676331 5.91052578 3.27332345 8.75 5.3125 C12.60296292 8.05644985 16.50888555 10.587161 20.6015625 12.95703125 C21.06304687 13.30121094 21.52453125 13.64539063 22 14 C22 14.66 22 15.32 22 16 C22.99 16 23.98 16 25 16 C25 16.66 25 17.32 25 18 C25.61875 18.12375 26.2375 18.2475 26.875 18.375 C29 19 29 19 31 21 C31 21.99 31 22.98 31 24 C29.68 23.67 28.36 23.34 27 23 C27.66 22.67 28.32 22.34 29 22 C28.50709473 21.67837891 28.01418945 21.35675781 27.50634766 21.02539062 C2.24869927 4.49739854 2.24869927 4.49739854 0 0 Z " fill="#1C9EA7" transform="translate(479,739)"/>
<path d="M0 0 C13.20209673 -0.33707481 26.19392131 0.46728864 39 4 C39.495 4.99 39.495 4.99 40 6 C33.80577027 5.50839447 27.78868181 4.63570602 21.6875 3.5 C14.45816992 2.16147323 7.3507246 1.3707322 0 1 C0 0.67 0 0.34 0 0 Z " fill="#1B99A4" transform="translate(468,256)"/>
<path d="M0 0 C2.71151619 3.19571551 4.83471221 6.44296836 6.88525391 10.08959961 C7.99335014 11.98860378 9.17054146 13.81449134 10.39453125 15.640625 C10.79220703 16.23617187 11.18988281 16.83171875 11.59960938 17.4453125 C12.42152464 18.66825889 13.24986828 19.88690497 14.08398438 21.1015625 C15.13364812 22.68556907 16.07592765 24.33959009 17 26 C16.67 26.99 16.34 27.98 16 29 C0 5.56916996 0 5.56916996 0 0 Z " fill="#1DA3AD" transform="translate(418,663)"/>
<path d="M0 0 C0 0.66 0 1.32 0 2 C-6.75 6 -6.75 6 -9 6 C-9 6.66 -9 7.32 -9 8 C-11.31 8.66 -13.62 9.32 -16 10 C-16 10.66 -16 11.32 -16 12 C-17.88923398 13.01241247 -19.78669944 14.00947425 -21.6875 15 C-23.27111328 15.8353125 -23.27111328 15.8353125 -24.88671875 16.6875 C-27.92226262 17.9672274 -29.76026826 18.28851043 -33 18 C-29.4763589 15.08015418 -25.5353975 13.21375638 -21.4375 11.25 C-15.33744725 8.2785718 -9.66390237 5.05653816 -4.0390625 1.25 C-2 0 -2 0 0 0 Z " fill="#1C9CA8" transform="translate(793,727)"/>
<path d="M0 0 C0.66 0.33 1.32 0.66 2 1 C-1.4452597 4.54215763 -4.9231666 7.98347618 -8.6875 11.1875 C-14.43565433 16.13068597 -19.68294744 21.60319165 -25 27 C-25.66 26.67 -26.32 26.34 -27 26 C-24.12244818 23.09752933 -21.24146947 20.19850682 -18.35742188 17.30249023 C-17.37895979 16.31903271 -16.40140113 15.33467541 -15.42480469 14.34936523 C-5.43605301 4.27379925 -5.43605301 4.27379925 0 0 Z " fill="#003559" transform="translate(500,306)"/>
<path d="M0 0 C3.41158256 1.13719419 4.11854601 2.04342944 6 5 C6 5.66 6 6.32 6 7 C6.66 7 7.32 7 8 7 C8.2475 7.94875 8.495 8.8975 8.75 9.875 C10.21566615 13.53916537 10.66216843 13.40364577 14 15 C15.921875 16.7265625 15.921875 16.7265625 17.75 18.625 C18.36359375 19.25664063 18.9771875 19.88828125 19.609375 20.5390625 C20.06828125 21.02117188 20.5271875 21.50328125 21 22 C16.4928074 22 14.65252909 19.4574121 11.42578125 16.5 C6.83626496 11.77006372 2.10467791 6.31403374 0 0 Z " fill="#219E9B" transform="translate(137,860)"/>
<path d="M0 0 C0.66 0 1.32 0 2 0 C-0.78642334 9.30173673 -6.52408118 16.89228422 -13 24 C-13.33 23.01 -13.66 22.02 -14 21 C-12.61190063 18.84696928 -11.22280028 16.92286195 -9.625 14.9375 C-6.53695104 11.15019165 -6.53695104 11.15019165 -4 7 C-3.34 7 -2.68 7 -2 7 C-2 5.68 -2 4.36 -2 3 C-1.34 3 -0.68 3 0 3 C0 2.01 0 1.02 0 0 Z " fill="#1F9C99" transform="translate(889,852)"/>
<path d="M0 0 C0 3 0 3 -1.8125 4.875 C-2.8953125 5.926875 -2.8953125 5.926875 -4 7 C-4.43570313 7.7734375 -4.87140625 8.546875 -5.3203125 9.34375 C-7.22978129 12.36337506 -9.35491413 14.30421211 -12.0625 16.625 C-14.86376918 19.03549008 -16.94234247 20.91351371 -19 24 C-19.66 23.67 -20.32 23.34 -21 23 C-18.8634969 20.62610766 -16.72690639 18.25229493 -14.58984375 15.87890625 C-12.89279628 13.99244474 -11.19742086 12.10447742 -9.50390625 10.21484375 C-8.71886719 9.33957031 -7.93382812 8.46429688 -7.125 7.5625 C-6.40570312 6.75941406 -5.68640625 5.95632813 -4.9453125 5.12890625 C-3.33761943 3.36948311 -1.70343512 1.66593812 0 0 Z " fill="#1EA0AC" transform="translate(772,380)"/>
<path d="M0 0 C0.66 0.33 1.32 0.66 2 1 C1.71278076 1.50861572 1.42556152 2.01723145 1.12963867 2.54125977 C-0.18809376 4.87961752 -1.50032266 7.22102082 -2.8125 9.5625 C-3.26431641 10.36236328 -3.71613281 11.16222656 -4.18164062 11.98632812 C-6.74542534 16.5711986 -9.03188616 21.12875478 -11 26 C-12.84552222 20.46343335 -8.90634202 14.69844344 -6.4375 9.6875 C-5.07167238 6.97711934 -3.68848876 4.53273314 -2 2 C-1.34 2 -0.68 2 0 2 C0 1.34 0 0.68 0 0 Z " fill="#1BA0A9" transform="translate(445,369)"/>
<path d="M0 0 C1.32 0.33 2.64 0.66 4 1 C1.08682653 3.12982166 -1.83112731 5.25299746 -4.75 7.375 C-5.575 7.97828125 -6.4 8.5815625 -7.25 9.203125 C-8.04921875 9.78320312 -8.8484375 10.36328125 -9.671875 10.9609375 C-10.4050293 11.49509277 -11.13818359 12.02924805 -11.89355469 12.57958984 C-13.87196342 13.91366286 -15.84176113 14.98912527 -18 16 C-18.33 15.34 -18.66 14.68 -19 14 C-18.01 14 -17.02 14 -16 14 C-16 13.34 -16 12.68 -16 12 C-15.34 12 -14.68 12 -14 12 C-14 11.34 -14 10.68 -14 10 C-13.01 9.67 -12.02 9.34 -11 9 C-10.484375 8.484375 -9.96875 7.96875 -9.4375 7.4375 C-8.963125 6.963125 -8.48875 6.48875 -8 6 C-7.34 6 -6.68 6 -6 6 C-6 5.34 -6 4.68 -6 4 C-4.68 4 -3.36 4 -2 4 C-2 3.34 -2 2.68 -2 2 C-1.34 2 -0.68 2 0 2 C0 1.34 0 0.68 0 0 Z " fill="#1CA1AA" transform="translate(315,293)"/>
<path d="M0 0 C-2.84177518 1.50829555 -5.61528803 2.58522453 -8.6953125 3.5078125 C-10.01595703 3.90419922 -10.01595703 3.90419922 -11.36328125 4.30859375 C-12.73033203 4.71271484 -12.73033203 4.71271484 -14.125 5.125 C-15.50365234 5.54072266 -15.50365234 5.54072266 -16.91015625 5.96484375 C-23.73745382 8 -23.73745382 8 -26 8 C-26 7.34 -26 6.68 -26 6 C-18.50074485 1.00049657 -8.87621565 -0.6121528 0 0 Z " fill="#1BA1AB" transform="translate(396,261)"/>
<path d="M0 0 C0.66 0.33 1.32 0.66 2 1 C0.90300781 1.61488281 -0.19398438 2.22976563 -1.32421875 2.86328125 C-2.77866735 3.67964917 -4.23309323 4.49605756 -5.6875 5.3125 C-6.40873047 5.71662109 -7.12996094 6.12074219 -7.87304688 6.53710938 C-10.89343912 8.23349406 -13.89293187 9.93411192 -16.84375 11.75 C-19.22974113 13.13318326 -21.28430246 13.61204321 -24 14 C-20.45366961 9.86734298 -16.20277147 7.75344496 -11.4375 5.3125 C-10.66986328 4.90966797 -9.90222656 4.50683594 -9.11132812 4.09179688 C-6.08440917 2.51632119 -3.2444381 1.08147937 0 0 Z " fill="#1E9EA9" transform="translate(397,367)"/>
<path d="M0 0 C7.2424983 0.43893929 12.25153497 7.11963316 17 12 C17.598125 12.598125 18.19625 13.19625 18.8125 13.8125 C19.204375 14.204375 19.59625 14.59625 20 15 C19.67 15.99 19.34 16.98 19 18 C18.1028125 16.7934375 18.1028125 16.7934375 17.1875 15.5625 C13.80758131 11.47153213 9.66481233 8.33551553 5.5234375 5.05078125 C3.54687048 3.44443808 1.74643953 1.84606863 0 0 Z " fill="#052E2D" transform="translate(863,137)"/>
<path d="M0 0 C0.639375 0.66 1.27875 1.32 1.9375 2 C7.51677284 7.56342263 13.27513137 12.86161931 20 17 C19.01 17.33 18.02 17.66 17 18 C10.29729783 14.21197366 4.51147758 9.21852315 0 3 C0 2.01 0 1.02 0 0 Z " fill="#042F2D" transform="translate(142,869)"/>
<path d="M0 0 C5.86966856 0.7649088 11.63866772 1.88102445 17.4375 3.0625 C18.35982422 3.24876953 19.28214844 3.43503906 20.23242188 3.62695312 C22.48864423 4.0828737 24.74448474 4.5405964 27 5 C27 5.33 27 5.66 27 6 C17.29813832 6.65040413 9.17100374 4.80642737 0 2 C0 1.34 0 0.68 0 0 Z " fill="#1AA3AC" transform="translate(578,759)"/>
<path d="M0 0 C0.86625 0.763125 1.7325 1.52625 2.625 2.3125 C7.04314155 6.11903931 11.66033648 9.66912759 16.28759766 13.21606445 C20.89154692 16.78309384 20.89154692 16.78309384 22 19 C17.77114601 17.57506007 14.89577914 15.49615034 11.5 12.625 C10.12328125 11.46871094 10.12328125 11.46871094 8.71875 10.2890625 C7.8215625 9.53367187 6.924375 8.77828125 6 8 C5.0821875 7.32710937 4.164375 6.65421875 3.21875 5.9609375 C0.90974597 3.92023324 0.32212569 3.0065064 0 0 Z " fill="#1F9EAA" transform="translate(486,705)"/>
<path d="M0 0 C2.05078125 0.03255208 4.1015625 0.06510417 6.15234375 0.09765625 C1.93800084 2.29105846 -2.41761304 3.76861069 -6.91015625 5.28515625 C-7.72548828 5.57068359 -8.54082031 5.85621094 -9.38085938 6.15039062 C-10.16525391 6.41529297 -10.94964844 6.68019531 -11.7578125 6.953125 C-12.82721069 7.31893677 -12.82721069 7.31893677 -13.91821289 7.69213867 C-15.84765625 8.09765625 -15.84765625 8.09765625 -18.84765625 7.09765625 C-17.19765625 6.76765625 -15.54765625 6.43765625 -13.84765625 6.09765625 C-13.84765625 5.43765625 -13.84765625 4.77765625 -13.84765625 4.09765625 C-13.06519531 3.89269531 -12.28273438 3.68773437 -11.4765625 3.4765625 C-10.46464844 3.20714844 -9.45273437 2.93773437 -8.41015625 2.66015625 C-7.40082031 2.39332031 -6.39148438 2.12648438 -5.3515625 1.8515625 C-3.04803776 1.15798953 -2.26840562 0.11989459 0 0 Z " fill="#1D9FAA" transform="translate(578.84765625,262.90234375)"/>
<path d="M0 0 C0.66 0.33 1.32 0.66 2 1 C1.06725891 2.12894876 0.12859878 3.25300876 -0.8125 4.375 C-1.33457031 5.00148437 -1.85664063 5.62796875 -2.39453125 6.2734375 C-4 8 -4 8 -7 10 C-7.474375 10.845625 -7.94875 11.69125 -8.4375 12.5625 C-10 15 -10 15 -12.1875 15.8125 C-12.785625 15.874375 -13.38375 15.93625 -14 16 C-11.11678807 9.18513544 -5.60614018 4.55599865 0 0 Z " fill="#1EA4A0" transform="translate(155,141)"/>
<path d="M0 0 C-3.06032459 1.62912132 -6.12363037 3.252557 -9.1875 4.875 C-10.48397461 5.56529297 -10.48397461 5.56529297 -11.80664062 6.26953125 C-12.64775391 6.71425781 -13.48886719 7.15898437 -14.35546875 7.6171875 C-15.51018677 8.22989502 -15.51018677 8.22989502 -16.68823242 8.85498047 C-19.08229997 10.04076321 -21.50776212 11.04011256 -24 12 C-24 11.34 -24 10.68 -24 10 C-23.01 10 -22.02 10 -21 10 C-21 9.34 -21 8.68 -21 8 C-19.35 7.67 -17.7 7.34 -16 7 C-15.67 6.01 -15.34 5.02 -15 4 C-12.3828125 2.578125 -12.3828125 2.578125 -9.125 1.25 C-8.05507813 0.80140625 -6.98515625 0.3528125 -5.8828125 -0.109375 C-3 -1 -3 -1 0 0 Z " fill="#1E9DA8" transform="translate(343,281)"/>
<path d="M0 0 C0.33 0.99 0.66 1.98 1 3 C-2.83989139 6.92965509 -6.70988071 10.83787809 -10.75 14.5625 C-11.28109375 15.05878906 -11.8121875 15.55507813 -12.359375 16.06640625 C-14 17 -14 17 -16.203125 16.65234375 C-16.79609375 16.43707031 -17.3890625 16.22179687 -18 16 C-17.20335937 15.43152344 -16.40671875 14.86304688 -15.5859375 14.27734375 C-9.6787046 9.97268133 -4.4765081 5.84433002 0 0 Z " fill="#042F2D" transform="translate(880,870)"/>
<path d="M0 0 C3.93963916 1.35033569 6.55309937 3.07756471 9.625 5.875 C10.38039063 6.55304687 11.13578125 7.23109375 11.9140625 7.9296875 C13.8437047 9.84487545 15.43754817 11.78072129 17 14 C13.46352645 14 13.1196492 13.52538832 10.64453125 11.19140625 C10.02255859 10.60939453 9.40058594 10.02738281 8.75976562 9.42773438 C8.11716797 8.81220703 7.47457031 8.19667969 6.8125 7.5625 C5.83120117 6.64500977 5.83120117 6.64500977 4.83007812 5.70898438 C1.3431326 2.41838407 1.3431326 2.41838407 0 1 C0 0.67 0 0.34 0 0 Z " fill="#1C959E" transform="translate(462,724)"/>
<path d="M0 0 C1 2 1 2 0.1015625 4.75 C-3.79391732 13.32417781 -3.79391732 13.32417781 -7.265625 15.26953125 C-11.17143449 16.16838476 -14.15177193 16.14053818 -18 15 C-16.56445975 14.49440092 -15.1264798 13.9957251 -13.6875 13.5 C-12.88699219 13.2215625 -12.08648437 12.943125 -11.26171875 12.65625 C-9 12 -9 12 -6 12 C-5.7525 11.319375 -5.505 10.63875 -5.25 9.9375 C-3.75802092 6.43134917 -1.93164489 3.28379632 0 0 Z " fill="#1D9BA6" transform="translate(423,349)"/>
<path d="M0 0 C20.59082218 -0.26027725 20.59082218 -0.26027725 28 4 C24.39974748 5.27367424 22.11545071 4.68436593 18.5 3.625 C12.34003367 1.96362977 6.35764284 1.32690008 0 1 C0 0.67 0 0.34 0 0 Z " fill="#103636" transform="translate(822,126)"/>
<path d="M0 0 C0.33 0 0.66 0 1 0 C1.23243303 4.76487706 0.38670154 8.4547005 -1 13 C-1.50340457 15.38923552 -1.9821263 17.78084389 -2.4375 20.1796875 C-2.623125 20.78039062 -2.80875 21.38109375 -3 22 C-3.66 22.33 -4.32 22.66 -5 23 C-4.44636539 14.97229811 -2.34312056 7.66145933 0 0 Z " fill="#1D99A6" transform="translate(315,458)"/>
<path d="M0 0 C0 0.33 0 0.66 0 1 C-2.20655075 1.50780894 -4.41533605 2.00591365 -6.625 2.5 C-8.46964844 2.91765625 -8.46964844 2.91765625 -10.3515625 3.34375 C-13.67152228 3.94091621 -16.63908451 4.12409534 -20 4 C-19.67 3.01 -19.34 2.02 -19 1 C-12.62641289 0.03794912 -6.44070471 -0.10655578 0 0 Z " fill="#0E302F" transform="translate(191,127)"/>
<path d="M0 0 C0.99 0.33 1.98 0.66 3 1 C1.13238675 2.46870557 -0.74317188 3.92470221 -2.625 5.375 C-3.40810547 5.99375 -3.40810547 5.99375 -4.20703125 6.625 C-7.66504478 9.27187456 -10.80482361 10.85357042 -15 12 C-15 11.34 -15 10.68 -15 10 C-12.89980986 8.52690889 -10.82232271 7.18690365 -8.625 5.875 C-8.02171875 5.50246094 -7.4184375 5.12992188 -6.796875 4.74609375 C-2.27034684 2 -2.27034684 2 0 2 C0 1.34 0 0.68 0 0 Z " fill="#209D99" transform="translate(871,877)"/>
<path d="M0 0 C0.66 0.33 1.32 0.66 2 1 C-3.76831658 6.37194039 -9.42634177 11.61756118 -16 16 C-16.66 15.67 -17.32 15.34 -18 15 C-15.93821926 13.24914666 -13.87560123 11.49929619 -11.8125 9.75 C-11.23435547 9.25886719 -10.65621094 8.76773437 -10.06054688 8.26171875 C-6.74768589 5.45420944 -3.4063788 2.69431092 0 0 Z " fill="#1E9FAA" transform="translate(488,276)"/>
<path d="M0 0 C-7.30934715 3.50848663 -13.99054432 3.30372936 -22 3 C-22 2.67 -22 2.34 -22 2 C-19.08483516 1.46915208 -16.16839443 0.95000945 -13.25 0.4375 C-12.425 0.28603516 -11.6 0.13457031 -10.75 -0.02148438 C-9.95078125 -0.16005859 -9.1515625 -0.29863281 -8.328125 -0.44140625 C-7.5949707 -0.57232666 -6.86181641 -0.70324707 -6.10644531 -0.83813477 C-3.83766713 -1.01247412 -2.16221421 -0.66874807 0 0 Z " fill="#1A99A3" transform="translate(505,764)"/>
<path d="M0 0 C3 1 3 1 4.0625 2.85546875 C4.371875 3.62503906 4.68125 4.39460937 5 5.1875 C6.16433186 8.01965857 7.33692688 10.61576293 8.8125 13.3125 C10.135912 16.30759032 9.93623099 17.0129773 9 20 C7.49352402 17.04492094 5.99593635 14.08542659 4.5 11.125 C4.07074219 10.28324219 3.64148438 9.44148437 3.19921875 8.57421875 C2.79316406 7.76855469 2.38710938 6.96289062 1.96875 6.1328125 C1.59169922 5.38918457 1.21464844 4.64555664 0.82617188 3.87939453 C0 2 0 2 0 0 Z " fill="#1DA1AA" transform="translate(525,580)"/>
<path d="M0 0 C3.30876612 4.96314917 4.94080894 10.66187588 6.75 16.3125 C7.01296875 17.13363281 7.2759375 17.95476563 7.546875 18.80078125 C8 21 8 21 7 24 C6.00947453 21.50399697 5.03255943 19.00395203 4.0625 16.5 C3.78470703 15.80390625 3.50691406 15.1078125 3.22070312 14.390625 C1.36375386 9.55808233 0.45899366 5.15932112 0 0 Z " fill="#1FA1AB" transform="translate(313,554)"/>
<path d="M0 0 C0.33 0.66 0.66 1.32 1 2 C-0.38923907 4.06721195 -1.78602884 6.12860338 -3.1875 8.1875 C-3.57486328 8.76564453 -3.96222656 9.34378906 -4.36132812 9.93945312 C-6.93841007 13.70923416 -9.67676054 16.86564804 -13 20 C-11.40013936 15.03657693 -8.47460168 11.29801238 -5.375 7.1875 C-4.6015625 6.14819336 -4.6015625 6.14819336 -3.8125 5.08789062 C-2.54657074 3.38826337 -1.27394735 1.69362565 0 0 Z " fill="#209CA9" transform="translate(344,405)"/>
<path d="M0 0 C4.02550319 1.3418344 4.88285636 3.4227573 7 7 C7 7.66 7 8.32 7 9 C7.66 9 8.32 9 9 9 C9 9.66 9 10.32 9 11 C9.66 11 10.32 11 11 11 C11.33 12.65 11.66 14.3 12 16 C7.1693267 11.60847882 3.52339133 6.48308737 0 1 C0 0.67 0 0.34 0 0 Z " fill="#1EA1AA" transform="translate(536,602)"/>
<path d="M0 0 C-2.0345041 2.0345041 -3.29354423 2.67053275 -5.9140625 3.7265625 C-6.67460937 4.0359375 -7.43515625 4.3453125 -8.21875 4.6640625 C-9.0128125 4.98117187 -9.806875 5.29828125 -10.625 5.625 C-11.42679687 5.94984375 -12.22859375 6.2746875 -13.0546875 6.609375 C-15.03463057 7.41078053 -17.0170821 8.20598362 -19 9 C-19 8.34 -19 7.68 -19 7 C-16.96630002 5.81719526 -14.92487318 4.65416773 -12.875 3.5 C-11.73804688 2.8503125 -10.60109375 2.200625 -9.4296875 1.53125 C-5.92744072 -0.03239549 -3.77825437 -0.32155356 0 0 Z " fill="#1D9FAA" transform="translate(363,271)"/>
<path d="M0 0 C0.33 0 0.66 0 1 0 C1.45164525 7.11341265 0.32797915 11.71546794 -3 18 C-3.66 18 -4.32 18 -5 18 C-4.80664062 17.3709375 -4.61328125 16.741875 -4.4140625 16.09375 C-2.7907875 10.75783615 -1.30539435 5.42240732 0 0 Z " fill="#063532" transform="translate(894,840)"/>
<path d="M0 0 C0.66 0.33 1.32 0.66 2 1 C-0.32522389 3.5112418 -2.79234784 5.72789898 -5.5 7.8125 C-6.0671875 8.25207031 -6.634375 8.69164062 -7.21875 9.14453125 C-9 10 -9 10 -13 9 C-8.71 6.03 -4.42 3.06 0 0 Z " fill="#1B9CA5" transform="translate(506,264)"/>
<path d="M0 0 C0.66 0.33 1.32 0.66 2 1 C1.04317245 3.25065096 0.08459556 5.50052949 -0.875 7.75 C-1.14441406 8.38421875 -1.41382813 9.0184375 -1.69140625 9.671875 C-3.04025304 12.83015042 -4.41474835 15.95262304 -6 19 C-4.7 4.7 -4.7 4.7 0 0 Z " fill="#032A29" transform="translate(135,162)"/>
<path d="M0 0 C3.80149136 1.45398922 4.99364507 3.19679402 6.75 6.8125 C7.39195312 8.09060547 7.39195312 8.09060547 8.046875 9.39453125 C9.04444794 12.12150319 9.18599776 14.12220136 9 17 C6.23638453 14.23638453 4.96885988 10.88667503 3.375 7.375 C3.05015625 6.66859375 2.7253125 5.9621875 2.390625 5.234375 C1.58979614 3.49139455 0.79437707 1.74593035 0 0 Z " fill="#032827" transform="translate(884,157)"/>
<path d="M0 0 C5.98511371 0.34302035 10.75117306 0.82307843 16 4 C15.67 4.99 15.34 5.98 15 7 C15 6.34 15 5.68 15 5 C14.33613281 4.87882813 13.67226563 4.75765625 12.98828125 4.6328125 C8.46575541 3.77452292 4.20061476 2.96028689 0 1 C0 0.67 0 0.34 0 0 Z " fill="#1994A0" transform="translate(402,658)"/>
<path d="M0 0 C0 3.73837399 -0.87486844 4.27919685 -3.375 6.9375 C-5.78233292 9.50829379 -7.56946286 11.77045403 -9 15 C-9.99 15 -10.98 15 -12 15 C-10.62177144 11.87327251 -9.03754129 9.84197456 -6.5625 7.5 C-4.1192676 5.13311862 -1.92112855 2.82518905 0 0 Z " fill="#1E9CA8" transform="translate(785,365)"/>
<path d="M0 0 C0.66 0 1.32 0 2 0 C1.27595226 4.04704581 0.16553713 7.89070402 -1.0625 11.8125 C-1.42472656 12.97394531 -1.78695312 14.13539063 -2.16015625 15.33203125 C-2.43730469 16.21246094 -2.71445313 17.09289062 -3 18 C-3.33 18 -3.66 18 -4 18 C-4.59244521 11.33499135 -2.48322845 6.13047025 0 0 Z " fill="#1DA0AB" transform="translate(219,416)"/>
<path d="M0 0 C1.1700097 3.91736581 0.69584017 6.97959015 0 11 C-0.66 11 -1.32 11 -2 11 C-2.33 12.65 -2.66 14.3 -3 16 C-4.49828872 12.11764181 -3.43110582 9.56550712 -2.0625 5.75 C-1.68222656 4.67234375 -1.30195313 3.5946875 -0.91015625 2.484375 C-0.45962891 1.25460938 -0.45962891 1.25460938 0 0 Z " fill="#229694" transform="translate(133,169)"/>
<path d="M0 0 C6.61085476 0.48969295 11.94977014 2.33442742 18 5 C13.9154674 6.72251754 10.63026304 5.07280563 6.75 3.5625 C6.1003125 3.31951172 5.450625 3.07652344 4.78125 2.82617188 C3.18383183 2.22714006 1.59139406 1.61485679 0 1 C0 0.67 0 0.34 0 0 Z " fill="#1D9CA7" transform="translate(595,654)"/>
<path d="M0 0 C1.65 0 3.3 0 5 0 C1.35421595 3.32875935 -3.21084385 5.0219329 -8 6 C-10.28125 5.578125 -10.28125 5.578125 -12 5 C-7.77050005 2.58314288 -4.87664009 1.65166856 0 2 C0 1.34 0 0.68 0 0 Z " fill="#1D9DA7" transform="translate(705,653)"/>
<path d="M0 0 C3.915141 3.35583515 6.0795774 7.28066362 8 12 C8 12.66 8 13.32 8 14 C7.34 14 6.68 14 6 14 C3 8.375 3 8.375 3 5 C2.34 5 1.68 5 1 5 C0.67 3.35 0.34 1.7 0 0 Z " fill="#219593" transform="translate(883,157)"/>
<path d="M0 0 C5.63470383 -0.5497272 8.38987758 1.04952165 13 4 C13 4.66 13 5.32 13 6 C8.52761347 4.58192622 4.28853694 2.88695626 0 1 C0 0.67 0 0.34 0 0 Z " fill="#063230" transform="translate(850,131)"/>
<path d="M0 0 C4.21878192 -0.19622241 7.17010894 0.19769832 11 2 C11 2.66 11 3.32 11 4 C11.99 4.33 12.98 4.66 14 5 C8.72250715 4.46148032 4.74354436 3.22656164 0 1 C0 0.67 0 0.34 0 0 Z " fill="#1E9693" transform="translate(168,889)"/>
<path d="M0 0 C1.32 0.33 2.64 0.66 4 1 C4 1.66 4 2.32 4 3 C4.66 3 5.32 3 6 3 C7.6875 5.375 7.6875 5.375 9 8 C8.67 8.66 8.34 9.32 8 10 C6.66070495 8.71451591 5.32871357 7.42141845 4 6.125 C2.88625 5.04605469 2.88625 5.04605469 1.75 3.9453125 C0 2 0 2 0 0 Z " fill="#1DA2AC" transform="translate(453,714)"/>
<path d="M0 0 C0 0.66 0 1.32 0 2 C-3.06246747 3.78409802 -5.22079273 4.22880021 -8.75 4.125 C-9.54921875 4.10695313 -10.3484375 4.08890625 -11.171875 4.0703125 C-11.77515625 4.04710937 -12.3784375 4.02390625 -13 4 C-10.34531286 2.23020858 -8.92500069 1.57859829 -5.9375 0.875 C-5.24527344 0.70742188 -4.55304687 0.53984375 -3.83984375 0.3671875 C-2 0 -2 0 0 0 Z " fill="#199DA7" transform="translate(726,757)"/>
<path d="M0 0 C3.40364888 1.39935885 4.90806188 2.87004732 6.8125 6 C7.25207031 6.70125 7.69164062 7.4025 8.14453125 8.125 C8.42683594 8.74375 8.70914062 9.3625 9 10 C8.67 10.66 8.34 11.32 8 12 C6.66081194 10.37982158 5.3288031 8.75370657 4 7.125 C3.2575 6.22007812 2.515 5.31515625 1.75 4.3828125 C0 2 0 2 0 0 Z " fill="#1E9BA5" transform="translate(435,692)"/>
<path d="M0 0 C0.66 0.33 1.32 0.66 2 1 C-0.97 3.64 -3.94 6.28 -7 9 C-7.99 8.34 -8.98 7.68 -10 7 C-6.7 4.69 -3.4 2.38 0 0 Z " fill="#00395F" transform="translate(518,293)"/>
<path d="M0 0 C9.59453303 1.74259681 9.59453303 1.74259681 13 5 C8.02693484 4.50269348 4.36200187 3.44697666 0 1 C0 0.67 0 0.34 0 0 Z " fill="#1CA4AD" transform="translate(391,653)"/>
<path d="M0 0 C0 0.66 0 1.32 0 2 C-1.670625 2.2165625 -1.670625 2.2165625 -3.375 2.4375 C-6.82142047 2.78372035 -6.82142047 2.78372035 -9 4 C-11.00800456 3.71887936 -13.01014051 3.38932033 -15 3 C-15 2.67 -15 2.34 -15 2 C-13.2508503 1.66223316 -11.50063855 1.32996329 -9.75 1 C-8.77546875 0.814375 -7.8009375 0.62875 -6.796875 0.4375 C-4 0 -4 0 0 0 Z " fill="#024969" transform="translate(689,661)"/>
<path d="M0 0 C-1.16290805 3.48872415 -2.13967609 4.09976864 -5.0625 6.1875 C-5.79597656 6.71730469 -6.52945313 7.24710938 -7.28515625 7.79296875 C-7.85105469 8.19128906 -8.41695312 8.58960938 -9 9 C-9.66 8.67 -10.32 8.34 -11 8 C-9.54712339 6.66072279 -8.08752741 5.32873153 -6.625 4 C-5.81289063 3.2575 -5.00078125 2.515 -4.1640625 1.75 C-2 0 -2 0 0 0 Z " fill="#1F9DAA" transform="translate(817,709)"/>
<path d="M0 0 C0.66 0.33 1.32 0.66 2 1 C-0.31 4.3 -2.62 7.6 -5 11 C-5.33 10.01 -5.66 9.02 -6 8 C-4.78515625 5.95703125 -4.78515625 5.95703125 -3.0625 3.8125 C-2.49660156 3.09707031 -1.93070312 2.38164062 -1.34765625 1.64453125 C-0.90292969 1.10183594 -0.45820313 0.55914062 0 0 Z " fill="#013758" transform="translate(438,324)"/>
<path d="M0 0 C3.93673644 1.31224548 6.22719294 2.91910327 9 6 C8.67 6.99 8.34 7.98 8 9 C7.236875 8.071875 6.47375 7.14375 5.6875 6.1875 C3.88151448 4.01723899 2.0523371 1.94431935 0 0 Z " fill="#063A37" transform="translate(874,146)"/>
<path d="M0 0 C4.79280002 0.80904103 6.13520113 3.25984591 9 7 C6 7 6 7 4.39453125 5.46875 C3.87246094 4.8190625 3.35039062 4.169375 2.8125 3.5 C2.28269531 2.8503125 1.75289063 2.200625 1.20703125 1.53125 C0.80871094 1.0259375 0.41039062 0.520625 0 0 Z " fill="#1CA0A8" transform="translate(470,731)"/>
<path d="M0 0 C0.33 0.99 0.66 1.98 1 3 C0.00390625 4.82421875 0.00390625 4.82421875 -1.4375 6.6875 C-1.91058594 7.31011719 -2.38367188 7.93273437 -2.87109375 8.57421875 C-3.24363281 9.04472656 -3.61617187 9.51523438 -4 10 C-4.33 9.01 -4.66 8.02 -5 7 C-4.00390625 5.17578125 -4.00390625 5.17578125 -2.5625 3.3125 C-2.08941406 2.68988281 -1.61632812 2.06726563 -1.12890625 1.42578125 C-0.75636719 0.95527344 -0.38382813 0.48476562 0 0 Z " fill="#032826" transform="translate(142,151)"/>
<path d="M0 0 C6.52307692 1.47692308 6.52307692 1.47692308 8.9375 4.125 C9.288125 4.74375 9.63875 5.3625 10 6 C5.56909529 4.79157144 3.01887244 3.48331435 0 0 Z " fill="#229895" transform="translate(158,883)"/>
<path d="M0 0 C4.1424367 1.38081223 5.32203099 3.59825558 8 7 C7.67 7.66 7.34 8.32 7 9 C5.82737096 7.88121617 4.66204862 6.75476949 3.5 5.625 C2.8503125 4.99851563 2.200625 4.37203125 1.53125 3.7265625 C0 2 0 2 0 0 Z " fill="#24A19C" transform="translate(875,148)"/>
<path d="M0 0 C2.76223278 2.76223278 2.57856291 5.20706617 3 9 C2.01 8.34 1.02 7.68 0 7 C-0.1875 3.375 -0.1875 3.375 0 0 Z " fill="#209795" transform="translate(891,172)"/>
<path d="M0 0 C3.25543229 0.34879632 4.01873107 1.02133261 6.25 3.5625 C6.8275 4.366875 7.405 5.17125 8 6 C6.68 5.67 5.36 5.34 4 5 C4 4.34 4 3.68 4 3 C3.01 3 2.02 3 1 3 C0.67 2.01 0.34 1.02 0 0 Z " fill="#20A5A1" transform="translate(867,142)"/>
</svg>
